<svg width="116" height="116" viewBox="0 0 116 116" fill="none" xmlns="http://www.w3.org/2000/svg">
<circle cx="58" cy="58" r="58" fill="#C10006"/>
<path d="M83.2779 79.6354H98.3753C98.3753 79.6354 100.464 72.6038 101.717 68.0538C102.135 66.3993 102.553 64.7448 102.553 63.0903C102.553 61.4358 102.135 59.7813 101.717 58.1267L100.782 54.8177H73.3094H44.0659H19V79.6354L33.2468 79.6431C33.2468 75.0743 36.9876 71.3705 41.6021 71.3705C46.2166 71.3705 49.9574 75.0743 49.9574 79.6431L59.122 79.6354H66.5673C66.5673 75.0666 70.3081 71.3629 74.9226 71.3629C79.5371 71.3629 83.2779 75.0666 83.2779 79.6354Z" fill="white"/>
<path d="M44.0659 30V54.8177M19 79.6354V54.8177H44.0659M44.0659 54.8177H73.3094M73.3094 30V54.8177M73.3094 54.8177H100.782M19 54.8177H100.782M100.882 54.8177H100.782M83.2779 79.6354H98.3753C98.3753 79.6354 100.464 72.6038 101.717 68.0538C102.135 66.3993 102.553 64.7448 102.553 63.0903C102.553 61.4358 102.135 59.7813 101.717 58.1267L100.782 54.8177M83.2779 79.6354C83.2779 84.2043 79.5371 87.908 74.9226 87.908C70.3081 87.908 66.5673 84.2043 66.5673 79.6354M83.2779 79.6354C83.2779 75.0666 79.5371 71.3629 74.9226 71.3629C70.3081 71.3629 66.5673 75.0666 66.5673 79.6354M33.2468 79.6431L19 79.6354V38.2726C19 36.0786 19.8803 33.9744 21.4472 32.423C23.0141 30.8716 25.1393 30 27.3553 30H85.8424C90.4378 30 94.6154 33.309 95.8687 37.4453L100.782 54.8177M33.2468 79.6431C33.2468 84.2119 36.9876 87.9156 41.6021 87.9156C46.2166 87.9156 49.9574 84.2119 49.9574 79.6431M33.2468 79.6431C33.2468 75.0743 36.9876 71.3705 41.6021 71.3705C46.2166 71.3705 49.9574 75.0743 49.9574 79.6431M49.9574 79.6431L59.122 79.6354H66.5673" stroke="white" stroke-width="5" stroke-linecap="round" stroke-linejoin="round"/>
<path d="M74.9226 70.3371C73.8637 70.3371 72.871 70.5356 71.8783 70.8665L69.3634 65.903L73.6652 59.4835C74.1285 58.8217 73.8637 57.2995 72.4739 57.2995H66.9809C66.1868 57.2995 65.5912 57.8951 65.5912 58.6893C65.5912 59.4835 66.1868 60.0791 66.9809 60.0791H69.8929L66.9809 64.447H50.9652C50.3034 64.447 49.8402 65.0426 49.8402 65.0426L45.6046 71.2636C44.4134 70.668 43.0236 70.3371 41.5676 70.3371C36.4055 70.3371 32.2361 74.5065 32.2361 79.6685C32.2361 84.8306 36.4055 89 41.6338 89C46.2664 89 50.1711 85.5586 50.8329 81.0583H58.4437C59.2378 81.0583 59.5687 80.3965 59.5687 80.3965L67.5104 68.484L69.4296 72.1239C67.1133 73.8446 65.5912 76.558 65.5912 79.6685C65.5912 84.8306 69.7605 89 74.9226 89C80.0847 89 84.2541 84.8306 84.2541 79.6685C84.2541 74.5065 80.0185 70.3371 74.9226 70.3371ZM58.576 76.9551L53.2816 67.1604H65.0617L58.576 76.9551ZM50.8329 68.484L56.0612 78.2787H50.7667C50.4358 76.161 49.3769 74.2417 47.8548 72.8519L50.8329 68.484ZM46.3326 75.1683C47.1268 76.0286 47.7224 77.0875 47.9871 78.2787H44.2148L46.3326 75.1683ZM41.6338 86.1542C38.06 86.1542 35.0819 83.2423 35.0819 79.6024C35.0819 75.9624 37.9939 73.1167 41.6338 73.1167C42.4941 73.1167 43.2883 73.3152 44.0825 73.5799L40.5087 78.8744C39.9131 79.6024 40.4425 80.9921 41.6338 80.9921H47.9871C47.3253 83.9703 44.6781 86.1542 41.6338 86.1542ZM74.9226 86.1542C71.3489 86.1542 68.3707 83.2423 68.3707 79.6024C68.3707 77.6169 69.2973 75.7639 70.7532 74.5726L73.7314 80.2642C74.0623 80.7936 74.8564 81.1907 75.6506 80.8598C76.3124 80.5951 76.5771 79.6685 76.2462 79.0067L73.2681 73.3814C73.7975 73.249 74.3932 73.1167 74.9888 73.1167C78.5625 73.1167 81.5407 76.0286 81.5407 79.6685C81.5407 83.3085 78.5625 86.1542 74.9226 86.1542ZM48.4504 62.1969H53.5463C54.3405 62.1969 54.9361 61.6012 54.9361 60.8071C54.9361 60.0129 54.3405 59.4173 53.5463 59.4173H48.4504C47.6562 59.4173 47.0606 60.0129 47.0606 60.8071C46.9944 61.5351 47.6562 62.1969 48.4504 62.1969Z" fill="#C10006"/>
</svg>
