<svg width="263" height="116" viewBox="0 0 263 116" fill="none" xmlns="http://www.w3.org/2000/svg">
<path d="M156.019 74.74C154.239 74.74 152.523 74.5338 150.871 74.1213C149.245 73.6831 147.955 73.1418 147 72.4973L149.013 68.1667C149.968 68.7596 151.09 69.2493 152.381 69.636C153.697 69.9969 154.987 70.1773 156.252 70.1773C157.645 70.1773 158.626 70.0098 159.194 69.6747C159.787 69.3396 160.084 68.8756 160.084 68.2827C160.084 67.7929 159.852 67.432 159.387 67.2C158.948 66.9422 158.355 66.7489 157.606 66.62C156.858 66.4911 156.032 66.3622 155.129 66.2333C154.252 66.1044 153.361 65.9369 152.458 65.7307C151.555 65.4987 150.729 65.1636 149.981 64.7253C149.232 64.2871 148.626 63.6942 148.161 62.9467C147.723 62.1991 147.503 61.2324 147.503 60.0467C147.503 58.732 147.877 57.572 148.626 56.5667C149.4 55.5613 150.51 54.7751 151.955 54.208C153.4 53.6151 155.129 53.3187 157.142 53.3187C158.561 53.3187 160.006 53.4733 161.477 53.7827C162.948 54.092 164.174 54.5431 165.155 55.136L163.142 59.428C162.135 58.8351 161.116 58.4356 160.084 58.2293C159.077 57.9973 158.097 57.8813 157.142 57.8813C155.8 57.8813 154.819 58.0618 154.2 58.4227C153.581 58.7836 153.271 59.2476 153.271 59.8147C153.271 60.3302 153.49 60.7169 153.929 60.9747C154.394 61.2324 155 61.4387 155.748 61.5933C156.497 61.748 157.31 61.8898 158.187 62.0187C159.09 62.1218 159.994 62.2893 160.897 62.5213C161.8 62.7533 162.613 63.0884 163.335 63.5267C164.084 63.9391 164.69 64.5191 165.155 65.2667C165.619 65.9884 165.852 66.9422 165.852 68.128C165.852 69.4169 165.465 70.564 164.69 71.5693C163.916 72.5489 162.794 73.3222 161.323 73.8893C159.877 74.4564 158.11 74.74 156.019 74.74ZM153.658 50.96L148.548 45.392H152.961L158.303 49.9933H154.355L159.697 45.392H164.11L159 50.96H153.658ZM169.577 74.4307V53.628H175.616V74.4307H169.577ZM172.597 50.728C171.487 50.728 170.584 50.4058 169.887 49.7613C169.19 49.1169 168.842 48.3178 168.842 47.364C168.842 46.4102 169.19 45.6111 169.887 44.9667C170.584 44.3222 171.487 44 172.597 44C173.706 44 174.61 44.3093 175.306 44.928C176.003 45.5209 176.352 46.2942 176.352 47.248C176.352 48.2533 176.003 49.0911 175.306 49.7613C174.635 50.4058 173.732 50.728 172.597 50.728ZM193.53 74.74C191.698 74.74 190.124 74.3533 188.808 73.58C187.491 72.8067 186.485 71.6338 185.788 70.0613C185.091 68.4631 184.743 66.4524 184.743 64.0293C184.743 61.5804 185.104 59.5698 185.827 57.9973C186.575 56.4249 187.608 55.252 188.924 54.4787C190.24 53.7053 191.775 53.3187 193.53 53.3187C195.491 53.3187 197.246 53.7569 198.795 54.6333C200.369 55.5098 201.608 56.7471 202.511 58.3453C203.44 59.9436 203.904 61.8382 203.904 64.0293C203.904 66.1947 203.44 68.0764 202.511 69.6747C201.608 71.2729 200.369 72.5231 198.795 73.4253C197.246 74.3018 195.491 74.74 193.53 74.74ZM181.22 74.4307V45.74H187.259V57.8427L186.872 63.9907L186.988 70.1773V74.4307H181.22ZM192.485 69.7907C193.491 69.7907 194.382 69.5587 195.156 69.0947C195.956 68.6307 196.588 67.9733 197.053 67.1227C197.543 66.2462 197.788 65.2151 197.788 64.0293C197.788 62.8178 197.543 61.7867 197.053 60.936C196.588 60.0853 195.956 59.428 195.156 58.964C194.382 58.5 193.491 58.268 192.485 58.268C191.478 58.268 190.575 58.5 189.775 58.964C188.975 59.428 188.343 60.0853 187.878 60.936C187.414 61.7867 187.182 62.8178 187.182 64.0293C187.182 65.2151 187.414 66.2462 187.878 67.1227C188.343 67.9733 188.975 68.6307 189.775 69.0947C190.575 69.5587 191.478 69.7907 192.485 69.7907ZM220.381 74.4307V70.3707L219.994 69.4813V62.212C219.994 60.9231 219.594 59.9178 218.794 59.196C218.019 58.4742 216.819 58.1133 215.194 58.1133C214.084 58.1133 212.987 58.2938 211.903 58.6547C210.845 58.9898 209.942 59.4538 209.194 60.0467L207.026 55.832C208.161 55.0329 209.529 54.4142 211.129 53.976C212.729 53.5378 214.355 53.3187 216.006 53.3187C219.181 53.3187 221.645 54.0662 223.4 55.5613C225.155 57.0564 226.032 59.3893 226.032 62.56V74.4307H220.381ZM214.032 74.74C212.406 74.74 211.013 74.4693 209.852 73.928C208.69 73.3609 207.8 72.6004 207.181 71.6467C206.561 70.6929 206.252 69.6231 206.252 68.4373C206.252 67.2 206.548 66.1173 207.142 65.1893C207.761 64.2613 208.729 63.5396 210.045 63.024C211.361 62.4827 213.077 62.212 215.194 62.212H220.729V65.7307H215.852C214.432 65.7307 213.452 65.9627 212.91 66.4267C212.394 66.8907 212.135 67.4707 212.135 68.1667C212.135 68.94 212.432 69.5587 213.026 70.0227C213.645 70.4609 214.484 70.68 215.542 70.68C216.548 70.68 217.452 70.448 218.252 69.984C219.052 69.4942 219.632 68.7853 219.994 67.8573L220.923 70.6413C220.484 71.9818 219.684 73 218.523 73.696C217.361 74.392 215.865 74.74 214.032 74.74ZM231.924 74.4307V47.364H237.111L248.646 66.4653H245.898L257.24 47.364H262.388L262.466 74.4307H256.582L256.543 56.3733H257.627L248.569 71.5693H245.743L236.491 56.3733H237.808V74.4307H231.924Z" fill="black"/>
<circle cx="58" cy="58" r="58" fill="#C10006"/>
<path d="M83.2779 79.6354H98.3753C98.3753 79.6354 100.464 72.6038 101.717 68.0538C102.135 66.3993 102.553 64.7448 102.553 63.0903C102.553 61.4358 102.135 59.7813 101.717 58.1267L100.782 54.8177H73.3094H44.0659H19V79.6354L33.2468 79.6431C33.2468 75.0743 36.9876 71.3705 41.6021 71.3705C46.2166 71.3705 49.9574 75.0743 49.9574 79.6431L59.122 79.6354H66.5673C66.5673 75.0666 70.3081 71.3629 74.9226 71.3629C79.5371 71.3629 83.2779 75.0666 83.2779 79.6354Z" fill="white"/>
<path d="M44.0659 30V54.8177M19 79.6354V54.8177H44.0659M44.0659 54.8177H73.3094M73.3094 30V54.8177M73.3094 54.8177H100.782M19 54.8177H100.782M100.882 54.8177H100.782M83.2779 79.6354H98.3753C98.3753 79.6354 100.464 72.6038 101.717 68.0538C102.135 66.3993 102.553 64.7448 102.553 63.0903C102.553 61.4358 102.135 59.7813 101.717 58.1267L100.782 54.8177M83.2779 79.6354C83.2779 84.2043 79.5371 87.908 74.9226 87.908C70.3081 87.908 66.5673 84.2043 66.5673 79.6354M83.2779 79.6354C83.2779 75.0666 79.5371 71.3629 74.9226 71.3629C70.3081 71.3629 66.5673 75.0666 66.5673 79.6354M33.2468 79.6431L19 79.6354V38.2726C19 36.0786 19.8803 33.9744 21.4472 32.423C23.0141 30.8716 25.1393 30 27.3553 30H85.8424C90.4378 30 94.6154 33.309 95.8687 37.4453L100.782 54.8177M33.2468 79.6431C33.2468 84.2119 36.9876 87.9156 41.6021 87.9156C46.2166 87.9156 49.9574 84.2119 49.9574 79.6431M33.2468 79.6431C33.2468 75.0743 36.9876 71.3705 41.6021 71.3705C46.2166 71.3705 49.9574 75.0743 49.9574 79.6431M49.9574 79.6431L59.122 79.6354H66.5673" stroke="white" stroke-width="5" stroke-linecap="round" stroke-linejoin="round"/>
<path d="M74.9226 70.337C73.8637 70.337 72.871 70.5356 71.8783 70.8665L69.3634 65.9029L73.6652 59.4834C74.1285 58.8216 73.8637 57.2994 72.4739 57.2994H66.9809C66.1868 57.2994 65.5912 57.8951 65.5912 58.6892C65.5912 59.4834 66.1868 60.079 66.9809 60.079H69.8929L66.9809 64.4469H50.9652C50.3034 64.4469 49.8402 65.0426 49.8402 65.0426L45.6046 71.2635C44.4134 70.6679 43.0236 70.337 41.5676 70.337C36.4055 70.337 32.2361 74.5064 32.2361 79.6685C32.2361 84.8306 36.4055 88.9999 41.6338 88.9999C46.2664 88.9999 50.1711 85.5585 50.8329 81.0583H58.4437C59.2378 81.0583 59.5687 80.3965 59.5687 80.3965L67.5104 68.484L69.4296 72.1239C67.1133 73.8446 65.5912 76.558 65.5912 79.6685C65.5912 84.8306 69.7605 88.9999 74.9226 88.9999C80.0847 88.9999 84.2541 84.8306 84.2541 79.6685C84.2541 74.5064 80.0185 70.337 74.9226 70.337ZM58.576 76.9551L53.2816 67.1603H65.0617L58.576 76.9551ZM50.8329 68.484L56.0612 78.2787H50.7667C50.4358 76.1609 49.3769 74.2417 47.8548 72.8519L50.8329 68.484ZM46.3326 75.1682C47.1268 76.0285 47.7224 77.0874 47.9871 78.2787H44.2148L46.3326 75.1682ZM41.6338 86.1542C38.06 86.1542 35.0819 83.2422 35.0819 79.6023C35.0819 75.9624 37.9939 73.1166 41.6338 73.1166C42.4941 73.1166 43.2883 73.3151 44.0825 73.5799L40.5087 78.8743C39.9131 79.6023 40.4425 80.9921 41.6338 80.9921H47.9871C47.3253 83.9702 44.6781 86.1542 41.6338 86.1542ZM74.9226 86.1542C71.3489 86.1542 68.3707 83.2422 68.3707 79.6023C68.3707 77.6169 69.2973 75.7638 70.7532 74.5726L73.7314 80.2641C74.0623 80.7935 74.8564 81.1906 75.6506 80.8597C76.3124 80.595 76.5771 79.6685 76.2462 79.0067L73.2681 73.3813C73.7975 73.249 74.3932 73.1166 74.9888 73.1166C78.5625 73.1166 81.5407 76.0285 81.5407 79.6685C81.5407 83.3084 78.5625 86.1542 74.9226 86.1542ZM48.4504 62.1968H53.5463C54.3405 62.1968 54.9361 61.6012 54.9361 60.807C54.9361 60.0128 54.3405 59.4172 53.5463 59.4172H48.4504C47.6562 59.4172 47.0606 60.0128 47.0606 60.807C46.9944 61.535 47.6562 62.1968 48.4504 62.1968Z" fill="#C10006"/>
</svg>
