<svg width="279" height="135" viewBox="0 0 279 135" fill="none" xmlns="http://www.w3.org/2000/svg">
<path d="M148.108 83.288C146.452 83.288 144.856 83.096 143.32 82.712C141.808 82.304 140.608 81.8 139.72 81.2L141.592 77.168C142.48 77.72 143.524 78.176 144.724 78.536C145.948 78.872 147.148 79.04 148.324 79.04C149.62 79.04 150.532 78.884 151.06 78.572C151.612 78.26 151.888 77.828 151.888 77.276C151.888 76.82 151.672 76.484 151.24 76.268C150.832 76.028 150.28 75.848 149.584 75.728C148.888 75.608 148.12 75.488 147.28 75.368C146.464 75.248 145.636 75.092 144.796 74.9C143.956 74.684 143.188 74.372 142.492 73.964C141.796 73.556 141.232 73.004 140.8 72.308C140.392 71.612 140.188 70.712 140.188 69.608C140.188 68.384 140.536 67.304 141.232 66.368C141.952 65.432 142.984 64.7 144.328 64.172C145.672 63.62 147.28 63.344 149.152 63.344C150.472 63.344 151.816 63.488 153.184 63.776C154.552 64.064 155.692 64.484 156.604 65.036L154.732 69.032C153.796 68.48 152.848 68.108 151.888 67.916C150.952 67.7 150.04 67.592 149.152 67.592C147.904 67.592 146.992 67.76 146.416 68.096C145.84 68.432 145.552 68.864 145.552 69.392C145.552 69.872 145.756 70.232 146.164 70.472C146.596 70.712 147.16 70.904 147.856 71.048C148.552 71.192 149.308 71.324 150.124 71.444C150.964 71.54 151.804 71.696 152.644 71.912C153.484 72.128 154.24 72.44 154.912 72.848C155.608 73.232 156.172 73.772 156.604 74.468C157.036 75.14 157.252 76.028 157.252 77.132C157.252 78.332 156.892 79.4 156.172 80.336C155.452 81.248 154.408 81.968 153.04 82.496C151.696 83.024 150.052 83.288 148.108 83.288ZM145.912 61.148L141.16 55.964H145.264L150.232 60.248H146.56L151.528 55.964H155.632L150.88 61.148H145.912ZM160.717 83V63.632H166.333V83H160.717ZM163.525 60.932C162.493 60.932 161.653 60.632 161.005 60.032C160.357 59.432 160.033 58.688 160.033 57.8C160.033 56.912 160.357 56.168 161.005 55.568C161.653 54.968 162.493 54.668 163.525 54.668C164.557 54.668 165.397 54.956 166.045 55.532C166.693 56.084 167.017 56.804 167.017 57.692C167.017 58.628 166.693 59.408 166.045 60.032C165.421 60.632 164.581 60.932 163.525 60.932ZM182.993 83.288C181.289 83.288 179.825 82.928 178.601 82.208C177.377 81.488 176.441 80.396 175.793 78.932C175.145 77.444 174.821 75.572 174.821 73.316C174.821 71.036 175.157 69.164 175.829 67.7C176.525 66.236 177.485 65.144 178.709 64.424C179.933 63.704 181.361 63.344 182.993 63.344C184.817 63.344 186.449 63.752 187.889 64.568C189.353 65.384 190.505 66.536 191.345 68.024C192.209 69.512 192.641 71.276 192.641 73.316C192.641 75.332 192.209 77.084 191.345 78.572C190.505 80.06 189.353 81.224 187.889 82.064C186.449 82.88 184.817 83.288 182.993 83.288ZM171.545 83V56.288H177.161V67.556L176.801 73.28L176.909 79.04V83H171.545ZM182.021 78.68C182.957 78.68 183.785 78.464 184.505 78.032C185.249 77.6 185.837 76.988 186.269 76.196C186.725 75.38 186.953 74.42 186.953 73.316C186.953 72.188 186.725 71.228 186.269 70.436C185.837 69.644 185.249 69.032 184.505 68.6C183.785 68.168 182.957 67.952 182.021 67.952C181.085 67.952 180.245 68.168 179.501 68.6C178.757 69.032 178.169 69.644 177.737 70.436C177.305 71.228 177.089 72.188 177.089 73.316C177.089 74.42 177.305 75.38 177.737 76.196C178.169 76.988 178.757 77.6 179.501 78.032C180.245 78.464 181.085 78.68 182.021 78.68ZM207.964 83V79.22L207.604 78.392V71.624C207.604 70.424 207.232 69.488 206.488 68.816C205.768 68.144 204.652 67.808 203.14 67.808C202.108 67.808 201.088 67.976 200.08 68.312C199.096 68.624 198.256 69.056 197.56 69.608L195.544 65.684C196.6 64.94 197.872 64.364 199.36 63.956C200.848 63.548 202.36 63.344 203.896 63.344C206.848 63.344 209.14 64.04 210.772 65.432C212.404 66.824 213.22 68.996 213.22 71.948V83H207.964ZM202.06 83.288C200.548 83.288 199.252 83.036 198.172 82.532C197.092 82.004 196.264 81.296 195.688 80.408C195.112 79.52 194.824 78.524 194.824 77.42C194.824 76.268 195.1 75.26 195.652 74.396C196.228 73.532 197.128 72.86 198.352 72.38C199.576 71.876 201.172 71.624 203.14 71.624H208.288V74.9H203.752C202.432 74.9 201.52 75.116 201.016 75.548C200.536 75.98 200.296 76.52 200.296 77.168C200.296 77.888 200.572 78.464 201.124 78.896C201.7 79.304 202.48 79.508 203.464 79.508C204.4 79.508 205.24 79.292 205.984 78.86C206.728 78.404 207.268 77.744 207.604 76.88L208.468 79.472C208.06 80.72 207.316 81.668 206.236 82.316C205.156 82.964 203.764 83.288 202.06 83.288ZM218.699 83V57.8H223.523L234.251 75.584H231.695L242.243 57.8H247.031L247.103 83H241.631L241.595 66.188H242.603L234.179 80.336H231.551L222.947 66.188H224.171V83H218.699Z" fill="black"/>
<g clip-path="url(#clip0_3_36)">
<mask id="mask0_3_36" style="mask-type:luminance" maskUnits="userSpaceOnUse" x="14" y="11" width="113" height="113">
<path d="M14 11H127V124H14V11Z" fill="white"/>
</mask>
<g mask="url(#mask0_3_36)">
<mask id="mask1_3_36" style="mask-type:luminance" maskUnits="userSpaceOnUse" x="14" y="11" width="113" height="113">
<path d="M70.499 11C39.296 11 14 36.296 14 67.499C14 98.7041 39.296 124 70.499 124C101.704 124 127 98.7041 127 67.499C127 36.296 101.704 11 70.499 11Z" fill="white"/>
</mask>
<g mask="url(#mask1_3_36)">
<mask id="mask2_3_36" style="mask-type:luminance" maskUnits="userSpaceOnUse" x="14" y="11" width="114" height="114">
<path d="M127.429 11H14V124.429H127.429V11Z" fill="white"/>
</mask>
<g mask="url(#mask2_3_36)">
<mask id="mask3_3_36" style="mask-type:luminance" maskUnits="userSpaceOnUse" x="14" y="11" width="113" height="113">
<path d="M14 11H127V124H14V11Z" fill="white"/>
</mask>
<g mask="url(#mask3_3_36)">
<mask id="mask4_3_36" style="mask-type:luminance" maskUnits="userSpaceOnUse" x="14" y="11" width="113" height="113">
<path d="M70.499 11C39.296 11 14 36.296 14 67.499C14 98.7041 39.296 124 70.499 124C101.704 124 127 98.7041 127 67.499C127 36.296 101.704 11 70.499 11Z" fill="white"/>
</mask>
<g mask="url(#mask4_3_36)">
<path d="M14 11H127V124H14V11Z" fill="#D9113E"/>
</g>
</g>
</g>
</g>
</g>
<mask id="mask5_3_36" style="mask-type:luminance" maskUnits="userSpaceOnUse" x="31" y="76" width="54" height="33">
<path d="M31.244 76.0908H84.5467V108.446H31.244V76.0908Z" fill="white"/>
</mask>
<g mask="url(#mask5_3_36)">
<path d="M49.8876 76.1492L48.2805 78.28L49.1988 79.8751L46.8062 87.6975C45.2413 86.616 43.3904 85.9836 41.4087 85.9836C35.7916 85.9836 31.2379 91.0005 31.2379 97.1915C31.2379 103.385 35.7916 108.401 41.4087 108.401C47.0257 108.401 51.5794 103.385 51.5794 97.1915C51.5794 93.7093 50.1374 90.5957 47.8756 88.5394L48.4557 86.6059L58.6164 99.1371C58.3968 99.4311 58.2558 99.7916 58.2558 100.186C58.2558 101.145 59.0272 101.927 59.9818 101.945L60.3967 104.436L59.6536 104.426V105.725L62.3866 105.737L62.3966 104.448L61.5991 104.436L60.7693 101.771C61.16 101.582 61.4783 101.258 61.6434 100.853L64.6362 100.231C65.8809 104.871 69.778 108.26 74.3921 108.26C80.0092 108.26 84.5648 103.244 84.5648 97.0506C84.5648 90.8575 80.0092 85.8406 74.3921 85.8406C72.3458 85.8406 70.4386 86.5092 68.8435 87.6552L68.8213 87.633L65.3572 83.9615L65.8164 82.4752C66.3844 82.4611 66.8617 82.4429 66.908 82.4429C67.0309 82.4429 67.8163 82.2758 68.1225 82.0502C68.6421 81.6615 69.1939 80.9042 69.2906 80.7713C69.3873 80.6384 69.4557 80.3846 69.3349 80.2034C69.2141 80.0221 68.9885 79.863 68.7226 79.8751C68.4568 79.8872 68.195 79.9214 66.1669 80.1168C64.1388 80.3101 62.9827 80.433 62.5719 80.433C62.159 80.433 61.1097 80.437 60.9989 80.4652C60.7673 80.5256 60.5176 80.7613 60.5176 80.7613C60.5176 80.7613 60.6344 81.1318 60.6706 81.2527C60.7069 81.3735 60.9002 81.6696 61.1177 81.7542C61.3373 81.8387 62.0603 82.2174 63.0532 82.3986C63.3634 82.457 63.8548 82.4772 64.3744 82.4873L64.1005 83.4258L49.3519 83.601L50.51 79.7341L50.1716 79.0131L50.6087 78.3787L54.5299 78.28V76.1492H49.8876ZM63.4882 85.4478L59.8952 97.4876L59.7845 95.7173H60.288L60.298 94.5814L57.8953 94.5693V95.7072H58.6043L58.9769 97.5963L49.0136 85.5022L63.4882 85.4478ZM64.898 85.5022L67.3672 88.9542C65.4338 90.9944 64.2213 93.8664 64.2213 97.0506C64.2213 97.4755 64.2455 97.8944 64.2858 98.3073L61.2487 98.9296C61.2185 98.8994 61.1822 98.8793 61.15 98.8531L64.898 85.5022ZM74.3921 88.1124C78.8692 88.1124 82.4985 92.1142 82.4985 97.0506C82.4985 101.985 78.8692 105.987 74.3921 105.987C70.789 105.987 67.7338 103.391 66.6784 99.8037L75.7475 97.9025L70.066 89.49C71.3187 88.6179 72.803 88.1124 74.3921 88.1124ZM41.4087 88.2554C43.1689 88.2554 44.7982 88.8757 46.1275 89.927L45.2312 92.8554L41.4731 96.831C41.4308 96.8089 41.3885 96.7847 41.3422 96.7666C41.2052 96.7102 41.0542 96.678 40.8951 96.678C40.2144 96.678 39.6605 97.2318 39.6605 97.9125C39.6605 98.5953 40.2144 99.1471 40.8951 99.1471C41.32 99.1471 41.6886 98.9296 41.9101 98.6013L41.9222 98.5792L46.2483 93.9691L47.1667 90.8998C48.6208 92.515 49.515 94.7365 49.515 97.1935C49.515 102.128 45.8858 106.13 41.4087 106.13C36.9315 106.13 33.3023 102.128 33.3023 97.1935C33.3023 92.2572 36.9315 88.2554 41.4087 88.2554ZM68.6461 90.7467L72.7869 96.537L66.3179 97.8803C66.2958 97.6084 66.2857 97.3285 66.2857 97.0506C66.2857 94.5894 67.1839 92.364 68.6461 90.7467Z" fill="white"/>
</g>
<path d="M101.023 26.8382H65.5163C63.883 26.8382 62.5598 28.1634 62.5598 29.7967V65.2997C62.5598 66.9331 63.883 68.2583 65.5163 68.2583H66.5314C66.3803 68.6812 66.2978 69.1344 66.2978 69.6097C66.2978 71.8271 68.0963 73.6256 70.3157 73.6256C72.5331 73.6256 74.3316 71.8271 74.3316 69.6097C74.3316 69.1344 74.2491 68.6812 74.098 68.2583H92.4396C92.2885 68.6812 92.206 69.1344 92.206 69.6097C92.206 71.8271 94.0025 73.6256 96.2219 73.6256C98.4413 73.6256 100.24 71.8271 100.24 69.6097C100.24 69.1344 100.157 68.6812 100.006 68.2583H101.021C102.655 68.2583 103.978 66.9331 103.978 65.2997V29.7967C103.978 28.1634 102.655 26.8382 101.021 26.8382H101.023ZM72.1162 30.7876C72.1162 30.4795 72.3639 30.2277 72.6741 30.2277H93.8655C94.1716 30.2277 94.4234 30.4775 94.4234 30.7876V31.2146C94.4234 31.5207 94.1757 31.7725 93.8655 31.7725H72.6721C72.3639 31.7725 72.1142 31.5228 72.1142 31.2146V30.7876H72.1162ZM67.6089 36.9002C67.6089 35.5709 68.6864 34.4954 70.0136 34.4954H96.522C97.8512 34.4954 98.9287 35.5709 98.9287 36.9002V44.35C98.9287 45.6772 97.8512 46.7547 96.522 46.7547H70.0136C68.6864 46.7547 67.6089 45.6772 67.6089 44.35V36.9002ZM71.0569 64.3249H69.4799C68.4487 64.3249 67.6089 63.4871 67.6089 62.4539V60.8789C67.6089 59.8458 68.4487 59.0059 69.4799 59.0059H71.0569C72.088 59.0059 72.9279 59.8458 72.9279 60.8789V62.4539C72.9279 63.4871 72.088 64.3249 71.0569 64.3249ZM97.0597 64.3249H95.4828C94.4516 64.3249 93.6117 63.4871 93.6117 62.4539V60.8789C93.6117 59.8458 94.4516 59.0059 95.4828 59.0059H97.0597C98.0909 59.0059 98.9307 59.8458 98.9307 60.8789V62.4539C98.9307 63.4871 98.0909 64.3249 97.0597 64.3249Z" fill="white"/>
<path d="M61.3373 43.7095H63.7803C63.9232 43.7095 64.0582 43.7377 64.1891 43.7921C64.32 43.8465 64.4368 43.923 64.5355 44.0237C64.6362 44.1244 64.7127 44.2392 64.7671 44.3701C64.8215 44.501 64.8497 44.638 64.8497 44.7789V50.9056C64.8497 51.0465 64.8215 51.1835 64.7671 51.3144C64.7127 51.4453 64.6362 51.5601 64.5355 51.6608C64.4368 51.7615 64.32 51.838 64.1891 51.8924C64.0582 51.9468 63.9232 51.973 63.7803 51.973H61.3373C61.1963 51.973 61.0593 51.9468 60.9284 51.8924C60.7975 51.838 60.6827 51.7615 60.582 51.6608C60.4813 51.5601 60.4048 51.4453 60.3504 51.3144C60.296 51.1835 60.2698 51.0465 60.2698 50.9056V44.7789C60.2698 44.638 60.296 44.501 60.3504 44.3701C60.4048 44.2392 60.4813 44.1244 60.582 44.0237C60.6827 43.923 60.7975 43.8465 60.9284 43.7921C61.0593 43.7377 61.1963 43.7095 61.3373 43.7095Z" fill="white"/>
<path d="M102.759 43.7095H105.202C105.343 43.7095 105.48 43.7377 105.611 43.7921C105.742 43.8465 105.857 43.923 105.958 44.0237C106.058 44.1244 106.135 44.2392 106.189 44.3701C106.244 44.501 106.27 44.638 106.27 44.7789V50.9056C106.27 51.0465 106.244 51.1835 106.189 51.3144C106.135 51.4453 106.058 51.5601 105.958 51.6608C105.857 51.7615 105.742 51.838 105.611 51.8924C105.48 51.9468 105.343 51.973 105.202 51.973H102.759C102.616 51.973 102.481 51.9468 102.351 51.8924C102.22 51.838 102.103 51.7615 102.004 51.6608C101.903 51.5601 101.827 51.4453 101.773 51.3144C101.718 51.1835 101.69 51.0465 101.69 50.9056V44.7789C101.69 44.638 101.718 44.501 101.773 44.3701C101.827 44.2392 101.903 44.1244 102.004 44.0237C102.103 43.923 102.22 43.8465 102.351 43.7921C102.481 43.7377 102.616 43.7095 102.759 43.7095Z" fill="white"/>
<mask id="mask6_3_36" style="mask-type:luminance" maskUnits="userSpaceOnUse" x="59" y="25" width="49" height="50">
<path d="M59.6093 25.5653H107.118V74.2338H59.6093V25.5653Z" fill="white"/>
</mask>
<g mask="url(#mask6_3_36)">
<path d="M83.2698 87.0973C62.9424 87.0973 46.4054 70.5583 46.4054 50.2329C46.4054 29.9075 62.9424 13.3705 83.2698 13.3705C103.597 13.3705 120.134 29.9055 120.134 50.2329C120.134 70.5623 103.595 87.0973 83.2698 87.0973ZM83.2698 15.3724C64.0481 15.3724 48.4093 31.0112 48.4093 50.2329C48.4093 69.4546 64.0481 85.0934 83.2698 85.0934C102.492 85.0934 118.13 69.4546 118.13 50.2329C118.13 31.0112 102.492 15.3724 83.2698 15.3724Z" fill="white"/>
</g>
<mask id="mask7_3_36" style="mask-type:luminance" maskUnits="userSpaceOnUse" x="33" y="34" width="9" height="11">
<path d="M33.3607 34.0564H41.0864V44.4869H33.3607V34.0564Z" fill="white"/>
</mask>
<g mask="url(#mask7_3_36)">
<path d="M37.1329 34.0564C35.0585 34.0564 33.3768 35.8005 33.3768 37.9535C33.3768 40.1044 34.7423 40.2595 37.1329 44.3963C39.5195 40.2595 40.891 40.1044 40.891 37.9535C40.891 35.8005 39.2093 34.0564 37.1329 34.0564ZM37.1329 39.4257C36.9416 39.4217 36.7583 39.3814 36.5831 39.3049C36.4079 39.2283 36.2528 39.1196 36.1199 38.9826C35.9869 38.8437 35.8842 38.6866 35.8137 38.5073C35.7452 38.3301 35.711 38.1448 35.715 37.9535C35.711 37.7601 35.7452 37.5769 35.8157 37.3976C35.8842 37.2204 35.9869 37.0613 36.1199 36.9243C36.2528 36.7853 36.4079 36.6786 36.5831 36.6021C36.7583 36.5255 36.9416 36.4853 37.1329 36.4812C37.3242 36.4853 37.5095 36.5255 37.6847 36.6021C37.86 36.6786 38.015 36.7853 38.148 36.9243C38.2809 37.0613 38.3816 37.2204 38.4521 37.3976C38.5226 37.5769 38.5568 37.7601 38.5528 37.9535C38.5568 38.1448 38.5226 38.3301 38.4521 38.5073C38.3816 38.6866 38.2809 38.8437 38.148 38.9826C38.015 39.1196 37.86 39.2283 37.6847 39.3049C37.5095 39.3814 37.3262 39.4217 37.1329 39.4257Z" fill="white"/>
</g>
<mask id="mask8_3_36" style="mask-type:luminance" maskUnits="userSpaceOnUse" x="107" y="74" width="8" height="12">
<path d="M107.071 74.7071H114.795V85.1357H107.071V74.7071Z" fill="white"/>
</mask>
<g mask="url(#mask8_3_36)">
<path d="M110.844 74.7071C108.769 74.7071 107.086 76.4513 107.086 78.6022C107.086 80.7552 108.451 80.9103 110.844 85.045C113.228 80.9103 114.6 80.7552 114.6 78.6022C114.6 76.4513 112.918 74.7071 110.844 74.7071ZM110.844 80.0745C110.652 80.0724 110.467 80.0322 110.292 79.9556C110.117 79.8791 109.962 79.7703 109.829 79.6334C109.696 79.4944 109.595 79.3373 109.525 79.1581C109.454 78.9808 109.42 78.7956 109.424 78.6022C109.42 78.4109 109.454 78.2276 109.525 78.0484C109.595 77.8711 109.696 77.712 109.829 77.5751C109.962 77.4361 110.117 77.3294 110.292 77.2528C110.469 77.1763 110.652 77.136 110.844 77.132C111.035 77.136 111.218 77.1763 111.394 77.2528C111.571 77.3294 111.724 77.4361 111.857 77.5751C111.99 77.712 112.092 77.8711 112.163 78.0484C112.233 78.2276 112.266 78.4109 112.264 78.6022C112.266 78.7956 112.233 78.9808 112.163 79.1581C112.092 79.3373 111.99 79.4944 111.857 79.6334C111.724 79.7703 111.571 79.8791 111.394 79.9556C111.218 80.0322 111.035 80.0724 110.844 80.0745Z" fill="white"/>
</g>
<path d="M37.5277 46.0639V50.7001H36.7543V46.0639H37.5277ZM37.5277 51.4715V56.1077H36.7543V51.4715H37.5277ZM37.5277 56.8791V57.6042C37.5277 58.4641 37.8318 59.1972 38.438 59.8055C38.6897 60.0572 38.9757 60.2606 39.298 60.4137L38.9636 61.1105C38.5629 60.9192 38.2064 60.6654 37.8922 60.3513C37.1349 59.594 36.7543 58.6776 36.7543 57.6042V56.8791H37.5277ZM39.9465 60.6393C40.1741 60.6916 40.4057 60.7178 40.6393 60.7178C41.4993 60.7178 42.2324 60.4137 42.8406 59.8055C43.0803 59.5658 43.2756 59.2939 43.4267 58.9898L44.1195 59.3342C43.9302 59.7128 43.6865 60.0532 43.3864 60.3513C42.6291 61.1105 41.7128 61.4892 40.6393 61.4892C40.3473 61.4892 40.0593 61.457 39.7733 61.3925L39.9465 60.6393ZM43.6623 58.3453C43.7227 58.1016 43.753 57.8559 43.753 57.6042V53.8017H44.5243V57.6042C44.5243 57.9183 44.4881 58.2265 44.4135 58.5286L43.6623 58.3453ZM43.753 53.0303V48.3941H44.5243V53.0303H43.753ZM43.753 47.6227V42.9865H44.5243V47.6227H43.753ZM43.761 42.1849C43.8335 41.0853 44.2605 40.1447 45.0399 39.3653C45.5072 38.9001 46.0509 38.5557 46.6713 38.3341L46.9311 39.0612C46.4195 39.2444 45.9704 39.5284 45.5857 39.9131C44.9432 40.5556 44.5928 41.3289 44.5324 42.2353L43.761 42.1849ZM47.495 38.1267C47.7105 38.0945 47.928 38.0783 48.1475 38.0783C49.36 38.0783 50.3972 38.5073 51.2551 39.3653C51.4948 39.607 51.7043 39.8708 51.8835 40.1608L51.2269 40.5677C51.0799 40.33 50.9067 40.1105 50.7093 39.9131C50.0004 39.2042 49.1465 38.8517 48.1475 38.8517C47.9663 38.8517 47.787 38.8658 47.6098 38.892L47.495 38.1267ZM52.2581 40.9201C52.4474 41.4216 52.5421 41.9392 52.5421 42.4729V44.1526C52.5421 44.6158 52.6347 45.0589 52.818 45.4838L52.1091 45.792C51.8835 45.2684 51.7687 44.7226 51.7687 44.1526V42.4729C51.7687 42.0318 51.6922 41.6069 51.5351 41.194L52.2581 40.9201ZM53.1584 46.0881C53.2671 46.2411 53.388 46.3821 53.5209 46.515C54.1734 47.1676 54.9609 47.4938 55.8833 47.4938H56.991V48.2672H55.8833C54.7474 48.2672 53.7767 47.8644 52.9731 47.0608C52.81 46.8977 52.6629 46.7225 52.528 46.5352L53.1584 46.0881ZM57.7624 47.4938H59.6092V48.2672H57.7624V47.4938Z" fill="white"/>
<path d="M83.3403 69.8876H83.147C83.1993 69.8876 83.2456 69.8695 83.2839 69.8312C83.3202 69.795 83.3403 69.7486 83.3403 69.6963V72.7092C83.3403 73.1422 83.2658 73.5612 83.1147 73.964L82.3917 73.6941C82.5085 73.3779 82.5669 73.0496 82.5669 72.7092V69.6963C82.5669 69.5352 82.6233 69.3982 82.7381 69.2854C82.8509 69.1726 82.9858 69.1162 83.147 69.1162H83.3403V69.8876ZM82.716 74.7333C82.001 75.7806 81.0121 76.3042 79.7453 76.3042H78.2147V75.5309H79.7453C80.7402 75.5309 81.5176 75.12 82.0775 74.2983L82.716 74.7333ZM77.4413 76.3042H72.807V75.5309H77.4413V76.3042ZM72.0337 76.3042H67.3994V75.5309H72.0337V76.3042ZM66.6683 76.3123C66.1588 76.3828 65.905 76.6768 65.905 77.1924V78.4653H65.1317V77.1924C65.1317 76.2277 65.609 75.6799 66.5636 75.547L66.6683 76.3123Z" fill="white"/>
<path d="M85.9504 95.8321H88.7862C89.4951 95.8321 90.1355 96.0435 90.7055 96.4665L90.2443 97.0868C89.8113 96.7666 89.3259 96.6055 88.7862 96.6055H85.9504V95.8321ZM91.3379 97.0868C91.785 97.6668 92.0086 98.3214 92.0086 99.0545V99.7997C92.0086 100.428 92.1778 101.006 92.5181 101.532L91.8696 101.951C91.4467 101.298 91.2352 100.581 91.2352 99.7997V99.0545C91.2352 98.4986 91.066 97.9991 90.7257 97.5581L91.3379 97.0868ZM92.9531 102.067C93.5755 102.684 94.3267 102.994 95.2028 102.994H95.2693C95.8191 102.994 96.3347 102.863 96.816 102.603L97.1826 103.282C96.5884 103.604 95.95 103.765 95.2693 103.765H95.2028C94.1132 103.765 93.1827 103.383 92.4094 102.615L92.9531 102.067ZM97.388 102.21C98.1473 101.56 98.5279 100.734 98.5279 99.7332V98.5651C98.5279 98.4382 98.534 98.3133 98.542 98.1885L99.3134 98.2428C99.3053 98.3496 99.3013 98.4563 99.3013 98.5651V99.7332C99.3013 100.97 98.83 101.993 97.8895 102.799L97.388 102.21ZM98.6709 97.3547C99.0918 95.5884 100.149 94.3759 101.843 93.7154L102.123 94.4364C100.681 94.9983 99.7806 96.0294 99.4221 97.5339L98.6709 97.3547ZM102.637 93.4777C102.995 93.4012 103.36 93.3629 103.73 93.3629H107.102C107.184 93.3629 107.265 93.3589 107.347 93.3548L107.402 94.1242C107.303 94.1323 107.202 94.1363 107.102 94.1363H103.73C103.414 94.1363 103.104 94.1685 102.798 94.233L102.637 93.4777ZM108.034 93.232C109.573 92.7889 110.382 91.7678 110.461 90.1687L111.232 90.2049C111.136 92.1726 110.141 93.4294 108.248 93.9752L108.034 93.232ZM110.465 89.4074V86.2514H111.236V89.4074H110.465Z" fill="white"/>
</g>
<defs>
<clipPath id="clip0_3_36">
<rect width="113" height="113" fill="white" transform="translate(14 11)"/>
</clipPath>
</defs>
</svg>
