<svg width="300" height="145" viewBox="0 0 300 145" fill="none" xmlns="http://www.w3.org/2000/svg">
<path d="M159.256 89.4575C157.475 89.4575 155.759 89.2513 154.108 88.8388C152.482 88.4006 151.191 87.8593 150.237 87.2148L152.249 82.8841C153.204 83.477 154.327 83.9668 155.617 84.3535C156.933 84.7144 158.224 84.8948 159.488 84.8948C160.882 84.8948 161.862 84.7273 162.43 84.3921C163.024 84.057 163.32 83.593 163.32 83.0001C163.32 82.5104 163.088 82.1495 162.624 81.9175C162.185 81.6597 161.591 81.4664 160.843 81.3375C160.095 81.2086 159.269 81.0797 158.366 80.9508C157.488 80.8219 156.598 80.6544 155.695 80.4482C154.791 80.2162 153.966 79.881 153.217 79.4428C152.469 79.0046 151.862 78.4117 151.398 77.6641C150.959 76.9166 150.74 75.9499 150.74 74.7642C150.74 73.4495 151.114 72.2895 151.862 71.2841C152.637 70.2788 153.746 69.4926 155.191 68.9255C156.637 68.3326 158.366 68.0361 160.378 68.0361C161.798 68.0361 163.243 68.1908 164.714 68.5001C166.185 68.8095 167.411 69.2606 168.391 69.8535L166.378 74.1455C165.372 73.5526 164.353 73.153 163.32 72.9468C162.314 72.7148 161.333 72.5988 160.378 72.5988C159.037 72.5988 158.056 72.7793 157.437 73.1401C156.817 73.501 156.508 73.965 156.508 74.5321C156.508 75.0477 156.727 75.4344 157.166 75.6921C157.63 75.9499 158.237 76.1561 158.985 76.3108C159.733 76.4655 160.546 76.6073 161.424 76.7361C162.327 76.8393 163.23 77.0068 164.133 77.2388C165.037 77.4708 165.849 77.8059 166.572 78.2441C167.32 78.6566 167.927 79.2366 168.391 79.9842C168.856 80.7059 169.088 81.6597 169.088 82.8455C169.088 84.1344 168.701 85.2815 167.927 86.2868C167.153 87.2664 166.03 88.0397 164.559 88.6068C163.114 89.1739 161.346 89.4575 159.256 89.4575ZM156.895 65.6775L151.785 60.1095H156.198L161.54 64.7108H157.591L162.933 60.1095H167.346L162.237 65.6775H156.895ZM172.814 89.1481V68.3455H178.853V89.1481H172.814ZM175.833 65.4455C174.724 65.4455 173.82 65.1233 173.124 64.4788C172.427 63.8344 172.079 63.0353 172.079 62.0815C172.079 61.1277 172.427 60.3286 173.124 59.6841C173.82 59.0397 174.724 58.7175 175.833 58.7175C176.943 58.7175 177.846 59.0268 178.543 59.6455C179.24 60.2384 179.588 61.0117 179.588 61.9655C179.588 62.9708 179.24 63.8086 178.543 64.4788C177.872 65.1233 176.969 65.4455 175.833 65.4455ZM196.767 89.4575C194.934 89.4575 193.36 89.0708 192.044 88.2975C190.728 87.5241 189.722 86.3513 189.025 84.7788C188.328 83.1806 187.98 81.1699 187.98 78.7468C187.98 76.2979 188.341 74.2873 189.063 72.7148C189.812 71.1424 190.844 69.9695 192.16 69.1962C193.476 68.4228 195.012 68.0361 196.767 68.0361C198.728 68.0361 200.483 68.4744 202.031 69.3508C203.605 70.2273 204.844 71.4646 205.747 73.0628C206.676 74.661 207.141 76.5557 207.141 78.7468C207.141 80.9122 206.676 82.7939 205.747 84.3921C204.844 85.9904 203.605 87.2406 202.031 88.1428C200.483 89.0193 198.728 89.4575 196.767 89.4575ZM184.457 89.1481V60.4575H190.496V72.5601L190.109 78.7081L190.225 84.8948V89.1481H184.457ZM195.722 84.5081C196.728 84.5081 197.618 84.2761 198.392 83.8121C199.192 83.3481 199.825 82.6908 200.289 81.8401C200.78 80.9637 201.025 79.9326 201.025 78.7468C201.025 77.5353 200.78 76.5041 200.289 75.6535C199.825 74.8028 199.192 74.1455 198.392 73.6815C197.618 73.2175 196.728 72.9855 195.722 72.9855C194.715 72.9855 193.812 73.2175 193.012 73.6815C192.212 74.1455 191.58 74.8028 191.115 75.6535C190.651 76.5041 190.418 77.5353 190.418 78.7468C190.418 79.9326 190.651 80.9637 191.115 81.8401C191.58 82.6908 192.212 83.3481 193.012 83.8121C193.812 84.2761 194.715 84.5081 195.722 84.5081ZM223.617 89.1481V85.0882L223.23 84.1988V76.9295C223.23 75.6406 222.83 74.6353 222.03 73.9135C221.256 73.1917 220.056 72.8308 218.43 72.8308C217.32 72.8308 216.224 73.0113 215.14 73.3721C214.082 73.7073 213.178 74.1713 212.43 74.7642L210.262 70.5495C211.398 69.7504 212.766 69.1317 214.366 68.6935C215.966 68.2553 217.591 68.0361 219.243 68.0361C222.417 68.0361 224.882 68.7837 226.637 70.2788C228.391 71.7739 229.269 74.1068 229.269 77.2775V89.1481H223.617ZM217.269 89.4575C215.643 89.4575 214.249 89.1868 213.088 88.6455C211.927 88.0784 211.037 87.3179 210.417 86.3641C209.798 85.4104 209.488 84.3406 209.488 83.1548C209.488 81.9175 209.785 80.8348 210.378 79.9068C210.998 78.9788 211.966 78.257 213.282 77.7415C214.598 77.2001 216.314 76.9295 218.43 76.9295H223.966V80.4482H219.088C217.669 80.4482 216.688 80.6801 216.146 81.1441C215.63 81.6081 215.372 82.1881 215.372 82.8841C215.372 83.6575 215.669 84.2762 216.262 84.7402C216.882 85.1784 217.72 85.3975 218.779 85.3975C219.785 85.3975 220.688 85.1655 221.488 84.7015C222.288 84.2117 222.869 83.5028 223.23 82.5748L224.159 85.3588C223.72 86.6993 222.92 87.7175 221.759 88.4135C220.598 89.1095 219.101 89.4575 217.269 89.4575ZM235.16 89.1481V62.0815H240.347L251.883 81.1828H249.134L260.476 62.0815H265.625L265.702 89.1481H259.818L259.78 71.0908H260.863L251.805 86.2868H248.98L239.728 71.0908H241.044V89.1481H235.16Z" fill="white"/>
<g clip-path="url(#clip0_3_28)">
<mask id="mask0_3_28" style="mask-type:luminance" maskUnits="userSpaceOnUse" x="19" y="17" width="113" height="113">
<path d="M19 17H132V130H19V17Z" fill="white"/>
</mask>
<g mask="url(#mask0_3_28)">
<mask id="mask1_3_28" style="mask-type:luminance" maskUnits="userSpaceOnUse" x="19" y="17" width="113" height="113">
<path d="M75.499 17C44.296 17 19 42.296 19 73.499C19 104.704 44.296 130 75.499 130C106.704 130 132 104.704 132 73.499C132 42.296 106.704 17 75.499 17Z" fill="white"/>
</mask>
<g mask="url(#mask1_3_28)">
<mask id="mask2_3_28" style="mask-type:luminance" maskUnits="userSpaceOnUse" x="19" y="17" width="114" height="114">
<path d="M132.429 17H19V130.429H132.429V17Z" fill="white"/>
</mask>
<g mask="url(#mask2_3_28)">
<mask id="mask3_3_28" style="mask-type:luminance" maskUnits="userSpaceOnUse" x="19" y="17" width="113" height="113">
<path d="M19 17H132V130H19V17Z" fill="white"/>
</mask>
<g mask="url(#mask3_3_28)">
<mask id="mask4_3_28" style="mask-type:luminance" maskUnits="userSpaceOnUse" x="19" y="17" width="113" height="113">
<path d="M75.499 17C44.296 17 19 42.296 19 73.499C19 104.704 44.296 130 75.499 130C106.704 130 132 104.704 132 73.499C132 42.296 106.704 17 75.499 17Z" fill="white"/>
</mask>
<g mask="url(#mask4_3_28)">
<path d="M19 17H132V130H19V17Z" fill="#D9113E"/>
</g>
</g>
</g>
</g>
</g>
<mask id="mask5_3_28" style="mask-type:luminance" maskUnits="userSpaceOnUse" x="36" y="82" width="54" height="33">
<path d="M36.244 82.0908H89.5467V114.446H36.244V82.0908Z" fill="white"/>
</mask>
<g mask="url(#mask5_3_28)">
<path d="M54.8876 82.1492L53.2805 84.28L54.1988 85.8751L51.8062 93.6975C50.2413 92.616 48.3904 91.9836 46.4087 91.9836C40.7916 91.9836 36.2379 97.0005 36.2379 103.191C36.2379 109.385 40.7916 114.401 46.4087 114.401C52.0257 114.401 56.5794 109.385 56.5794 103.191C56.5794 99.7093 55.1374 96.5957 52.8756 94.5394L53.4557 92.6059L63.6164 105.137C63.3968 105.431 63.2558 105.792 63.2558 106.186C63.2558 107.145 64.0272 107.927 64.9818 107.945L65.3967 110.436L64.6536 110.426V111.725L67.3866 111.737L67.3966 110.448L66.5991 110.436L65.7693 107.771C66.16 107.582 66.4783 107.258 66.6434 106.853L69.6362 106.231C70.8809 110.871 74.778 114.26 79.3921 114.26C85.0092 114.26 89.5648 109.244 89.5648 103.051C89.5648 96.8575 85.0092 91.8406 79.3921 91.8406C77.3458 91.8406 75.4386 92.5092 73.8435 93.6552L73.8213 93.633L70.3572 89.9615L70.8164 88.4752C71.3844 88.4611 71.8617 88.4429 71.908 88.4429C72.0309 88.4429 72.8163 88.2758 73.1225 88.0502C73.6421 87.6615 74.1939 86.9042 74.2906 86.7713C74.3873 86.6384 74.4557 86.3846 74.3349 86.2034C74.2141 86.0221 73.9885 85.863 73.7226 85.8751C73.4568 85.8872 73.195 85.9214 71.1669 86.1168C69.1388 86.3101 67.9827 86.433 67.5719 86.433C67.159 86.433 66.1097 86.437 65.9989 86.4652C65.7673 86.5256 65.5176 86.7613 65.5176 86.7613C65.5176 86.7613 65.6344 87.1318 65.6706 87.2527C65.7069 87.3735 65.9002 87.6696 66.1177 87.7542C66.3373 87.8387 67.0603 88.2174 68.0532 88.3986C68.3634 88.457 68.8548 88.4772 69.3744 88.4873L69.1005 89.4258L54.3519 89.601L55.51 85.7341L55.1716 85.0131L55.6087 84.3787L59.5299 84.28V82.1492H54.8876ZM68.4882 91.4478L64.8952 103.488L64.7845 101.717H65.288L65.298 100.581L62.8953 100.569V101.707H63.6043L63.9769 103.596L54.0136 91.5022L68.4882 91.4478ZM69.898 91.5022L72.3672 94.9542C70.4338 96.9944 69.2213 99.8664 69.2213 103.051C69.2213 103.475 69.2455 103.894 69.2858 104.307L66.2487 104.93C66.2185 104.899 66.1822 104.879 66.15 104.853L69.898 91.5022ZM79.3921 94.1124C83.8692 94.1124 87.4985 98.1142 87.4985 103.051C87.4985 107.985 83.8692 111.987 79.3921 111.987C75.789 111.987 72.7338 109.391 71.6784 105.804L80.7475 103.902L75.066 95.49C76.3187 94.6179 77.803 94.1124 79.3921 94.1124ZM46.4087 94.2554C48.1689 94.2554 49.7982 94.8757 51.1275 95.927L50.2312 98.8554L46.4731 102.831C46.4308 102.809 46.3885 102.785 46.3422 102.767C46.2052 102.71 46.0542 102.678 45.8951 102.678C45.2144 102.678 44.6605 103.232 44.6605 103.912C44.6605 104.595 45.2144 105.147 45.8951 105.147C46.32 105.147 46.6886 104.93 46.9101 104.601L46.9222 104.579L51.2483 99.9691L52.1667 96.8998C53.6208 98.515 54.515 100.736 54.515 103.193C54.515 108.128 50.8858 112.13 46.4087 112.13C41.9315 112.13 38.3023 108.128 38.3023 103.193C38.3023 98.2572 41.9315 94.2554 46.4087 94.2554ZM73.6461 96.7467L77.7869 102.537L71.3179 103.88C71.2958 103.608 71.2857 103.328 71.2857 103.051C71.2857 100.589 72.1839 98.364 73.6461 96.7467Z" fill="white"/>
</g>
<path d="M106.023 32.8382H70.5163C68.883 32.8382 67.5598 34.1634 67.5598 35.7967V71.2997C67.5598 72.9331 68.883 74.2583 70.5163 74.2583H71.5314C71.3803 74.6812 71.2978 75.1344 71.2978 75.6097C71.2978 77.8271 73.0963 79.6256 75.3157 79.6256C77.5331 79.6256 79.3316 77.8271 79.3316 75.6097C79.3316 75.1344 79.2491 74.6812 79.098 74.2583H97.4396C97.2885 74.6812 97.206 75.1344 97.206 75.6097C97.206 77.8271 99.0025 79.6256 101.222 79.6256C103.441 79.6256 105.24 77.8271 105.24 75.6097C105.24 75.1344 105.157 74.6812 105.006 74.2583H106.021C107.655 74.2583 108.978 72.9331 108.978 71.2997V35.7967C108.978 34.1634 107.655 32.8382 106.021 32.8382H106.023ZM77.1162 36.7876C77.1162 36.4795 77.3639 36.2277 77.6741 36.2277H98.8655C99.1716 36.2277 99.4234 36.4775 99.4234 36.7876V37.2146C99.4234 37.5207 99.1757 37.7725 98.8655 37.7725H77.6721C77.3639 37.7725 77.1142 37.5228 77.1142 37.2146V36.7876H77.1162ZM72.6089 42.9002C72.6089 41.5709 73.6864 40.4954 75.0136 40.4954H101.522C102.851 40.4954 103.929 41.5709 103.929 42.9002V50.35C103.929 51.6772 102.851 52.7547 101.522 52.7547H75.0136C73.6864 52.7547 72.6089 51.6772 72.6089 50.35V42.9002ZM76.0569 70.3249H74.4799C73.4487 70.3249 72.6089 69.4871 72.6089 68.4539V66.8789C72.6089 65.8458 73.4487 65.0059 74.4799 65.0059H76.0569C77.088 65.0059 77.9279 65.8458 77.9279 66.8789V68.4539C77.9279 69.4871 77.088 70.3249 76.0569 70.3249ZM102.06 70.3249H100.483C99.4516 70.3249 98.6117 69.4871 98.6117 68.4539V66.8789C98.6117 65.8458 99.4516 65.0059 100.483 65.0059H102.06C103.091 65.0059 103.931 65.8458 103.931 66.8789V68.4539C103.931 69.4871 103.091 70.3249 102.06 70.3249Z" fill="white"/>
<path d="M66.3373 49.7095H68.7803C68.9232 49.7095 69.0582 49.7377 69.1891 49.7921C69.32 49.8465 69.4368 49.923 69.5355 50.0237C69.6362 50.1244 69.7127 50.2392 69.7671 50.3701C69.8215 50.501 69.8497 50.638 69.8497 50.7789V56.9056C69.8497 57.0465 69.8215 57.1835 69.7671 57.3144C69.7127 57.4453 69.6362 57.5601 69.5355 57.6608C69.4368 57.7615 69.32 57.838 69.1891 57.8924C69.0582 57.9468 68.9232 57.973 68.7803 57.973H66.3373C66.1963 57.973 66.0593 57.9468 65.9284 57.8924C65.7975 57.838 65.6827 57.7615 65.582 57.6608C65.4813 57.5601 65.4048 57.4453 65.3504 57.3144C65.296 57.1835 65.2698 57.0465 65.2698 56.9056V50.7789C65.2698 50.638 65.296 50.501 65.3504 50.3701C65.4048 50.2392 65.4813 50.1244 65.582 50.0237C65.6827 49.923 65.7975 49.8465 65.9284 49.7921C66.0593 49.7377 66.1963 49.7095 66.3373 49.7095Z" fill="white"/>
<path d="M107.759 49.7095H110.202C110.343 49.7095 110.48 49.7377 110.611 49.7921C110.742 49.8465 110.857 49.923 110.958 50.0237C111.058 50.1244 111.135 50.2392 111.189 50.3701C111.244 50.501 111.27 50.638 111.27 50.7789V56.9056C111.27 57.0465 111.244 57.1835 111.189 57.3144C111.135 57.4453 111.058 57.5601 110.958 57.6608C110.857 57.7615 110.742 57.838 110.611 57.8924C110.48 57.9468 110.343 57.973 110.202 57.973H107.759C107.616 57.973 107.481 57.9468 107.35 57.8924C107.22 57.838 107.103 57.7615 107.004 57.6608C106.903 57.5601 106.827 57.4453 106.772 57.3144C106.718 57.1835 106.69 57.0465 106.69 56.9056V50.7789C106.69 50.638 106.718 50.501 106.772 50.3701C106.827 50.2392 106.903 50.1244 107.004 50.0237C107.103 49.923 107.22 49.8465 107.35 49.7921C107.481 49.7377 107.616 49.7095 107.759 49.7095Z" fill="white"/>
<mask id="mask6_3_28" style="mask-type:luminance" maskUnits="userSpaceOnUse" x="64" y="31" width="49" height="50">
<path d="M64.6093 31.5653H112.118V80.2338H64.6093V31.5653Z" fill="white"/>
</mask>
<g mask="url(#mask6_3_28)">
<path d="M88.2698 93.0973C67.9424 93.0973 51.4054 76.5583 51.4054 56.2329C51.4054 35.9075 67.9424 19.3705 88.2698 19.3705C108.597 19.3705 125.134 35.9055 125.134 56.2329C125.134 76.5623 108.595 93.0973 88.2698 93.0973ZM88.2698 21.3724C69.0481 21.3724 53.4093 37.0112 53.4093 56.2329C53.4093 75.4546 69.0481 91.0934 88.2698 91.0934C107.491 91.0934 123.13 75.4546 123.13 56.2329C123.13 37.0112 107.491 21.3724 88.2698 21.3724Z" fill="white"/>
</g>
<mask id="mask7_3_28" style="mask-type:luminance" maskUnits="userSpaceOnUse" x="38" y="40" width="9" height="11">
<path d="M38.3607 40.0564H46.0864V50.4869H38.3607V40.0564Z" fill="white"/>
</mask>
<g mask="url(#mask7_3_28)">
<path d="M42.1329 40.0564C40.0585 40.0564 38.3768 41.8005 38.3768 43.9535C38.3768 46.1044 39.7423 46.2595 42.1329 50.3963C44.5195 46.2595 45.891 46.1044 45.891 43.9535C45.891 41.8005 44.2093 40.0564 42.1329 40.0564ZM42.1329 45.4257C41.9416 45.4217 41.7583 45.3814 41.5831 45.3049C41.4079 45.2283 41.2528 45.1196 41.1199 44.9826C40.9869 44.8437 40.8842 44.6866 40.8137 44.5073C40.7452 44.3301 40.711 44.1448 40.715 43.9535C40.711 43.7601 40.7452 43.5769 40.8157 43.3976C40.8842 43.2204 40.9869 43.0613 41.1199 42.9243C41.2528 42.7853 41.4079 42.6786 41.5831 42.6021C41.7583 42.5255 41.9416 42.4853 42.1329 42.4812C42.3242 42.4853 42.5095 42.5255 42.6847 42.6021C42.86 42.6786 43.015 42.7853 43.148 42.9243C43.2809 43.0613 43.3816 43.2204 43.4521 43.3976C43.5226 43.5769 43.5568 43.7601 43.5528 43.9535C43.5568 44.1448 43.5226 44.3301 43.4521 44.5073C43.3816 44.6866 43.2809 44.8437 43.148 44.9826C43.015 45.1196 42.86 45.2283 42.6847 45.3049C42.5095 45.3814 42.3262 45.4217 42.1329 45.4257Z" fill="white"/>
</g>
<mask id="mask8_3_28" style="mask-type:luminance" maskUnits="userSpaceOnUse" x="112" y="80" width="8" height="12">
<path d="M112.071 80.7071H119.795V91.1357H112.071V80.7071Z" fill="white"/>
</mask>
<g mask="url(#mask8_3_28)">
<path d="M115.844 80.7071C113.769 80.7071 112.086 82.4513 112.086 84.6022C112.086 86.7552 113.451 86.9103 115.844 91.045C118.228 86.9103 119.6 86.7552 119.6 84.6022C119.6 82.4513 117.918 80.7071 115.844 80.7071ZM115.844 86.0745C115.652 86.0724 115.467 86.0322 115.292 85.9556C115.117 85.8791 114.962 85.7703 114.829 85.6334C114.696 85.4944 114.595 85.3373 114.525 85.1581C114.454 84.9808 114.42 84.7956 114.424 84.6022C114.42 84.4109 114.454 84.2276 114.525 84.0484C114.595 83.8711 114.696 83.712 114.829 83.5751C114.962 83.4361 115.117 83.3294 115.292 83.2528C115.469 83.1763 115.652 83.136 115.844 83.132C116.035 83.136 116.218 83.1763 116.394 83.2528C116.571 83.3294 116.724 83.4361 116.857 83.5751C116.99 83.712 117.092 83.8711 117.163 84.0484C117.233 84.2276 117.266 84.4109 117.264 84.6022C117.266 84.7956 117.233 84.9808 117.163 85.1581C117.092 85.3373 116.99 85.4944 116.857 85.6334C116.724 85.7703 116.571 85.8791 116.394 85.9556C116.218 86.0322 116.035 86.0724 115.844 86.0745Z" fill="white"/>
</g>
<path d="M42.5277 52.0639V56.7001H41.7543V52.0639H42.5277ZM42.5277 57.4715V62.1077H41.7543V57.4715H42.5277ZM42.5277 62.8791V63.6042C42.5277 64.4641 42.8318 65.1972 43.438 65.8055C43.6897 66.0572 43.9757 66.2606 44.298 66.4137L43.9636 67.1105C43.5629 66.9192 43.2064 66.6654 42.8922 66.3513C42.1349 65.594 41.7543 64.6776 41.7543 63.6042V62.8791H42.5277ZM44.9465 66.6393C45.1741 66.6916 45.4057 66.7178 45.6393 66.7178C46.4993 66.7178 47.2324 66.4137 47.8406 65.8055C48.0803 65.5658 48.2756 65.2939 48.4267 64.9898L49.1195 65.3342C48.9302 65.7128 48.6865 66.0532 48.3864 66.3513C47.6291 67.1105 46.7128 67.4892 45.6393 67.4892C45.3473 67.4892 45.0593 67.457 44.7733 67.3925L44.9465 66.6393ZM48.6623 64.3453C48.7227 64.1016 48.753 63.8559 48.753 63.6042V59.8017H49.5243V63.6042C49.5243 63.9183 49.4881 64.2265 49.4135 64.5286L48.6623 64.3453ZM48.753 59.0303V54.3941H49.5243V59.0303H48.753ZM48.753 53.6227V48.9865H49.5243V53.6227H48.753ZM48.761 48.1849C48.8335 47.0853 49.2605 46.1447 50.0399 45.3653C50.5072 44.9001 51.0509 44.5557 51.6713 44.3341L51.9311 45.0612C51.4195 45.2444 50.9704 45.5284 50.5857 45.9131C49.9432 46.5556 49.5928 47.3289 49.5324 48.2353L48.761 48.1849ZM52.495 44.1267C52.7105 44.0945 52.928 44.0783 53.1475 44.0783C54.36 44.0783 55.3972 44.5073 56.2551 45.3653C56.4948 45.607 56.7043 45.8708 56.8835 46.1608L56.2269 46.5677C56.0799 46.33 55.9067 46.1105 55.7093 45.9131C55.0004 45.2042 54.1465 44.8517 53.1475 44.8517C52.9663 44.8517 52.787 44.8658 52.6098 44.892L52.495 44.1267ZM57.2581 46.9201C57.4474 47.4216 57.5421 47.9392 57.5421 48.4729V50.1526C57.5421 50.6158 57.6347 51.0589 57.818 51.4838L57.1091 51.792C56.8835 51.2684 56.7687 50.7226 56.7687 50.1526V48.4729C56.7687 48.0318 56.6922 47.6069 56.5351 47.194L57.2581 46.9201ZM58.1584 52.0881C58.2671 52.2411 58.388 52.3821 58.5209 52.515C59.1734 53.1676 59.9609 53.4938 60.8833 53.4938H61.991V54.2672H60.8833C59.7474 54.2672 58.7767 53.8644 57.9731 53.0608C57.81 52.8977 57.6629 52.7225 57.528 52.5352L58.1584 52.0881ZM62.7624 53.4938H64.6092V54.2672H62.7624V53.4938Z" fill="white"/>
<path d="M88.3403 75.8876H88.147C88.1993 75.8876 88.2456 75.8695 88.2839 75.8312C88.3202 75.795 88.3403 75.7486 88.3403 75.6963V78.7092C88.3403 79.1422 88.2658 79.5612 88.1147 79.964L87.3917 79.6941C87.5085 79.3779 87.5669 79.0496 87.5669 78.7092V75.6963C87.5669 75.5352 87.6233 75.3982 87.7381 75.2854C87.8509 75.1726 87.9858 75.1162 88.147 75.1162H88.3403V75.8876ZM87.716 80.7333C87.001 81.7806 86.0121 82.3042 84.7453 82.3042H83.2147V81.5309H84.7453C85.7402 81.5309 86.5176 81.12 87.0775 80.2983L87.716 80.7333ZM82.4413 82.3042H77.807V81.5309H82.4413V82.3042ZM77.0337 82.3042H72.3994V81.5309H77.0337V82.3042ZM71.6683 82.3123C71.1588 82.3828 70.905 82.6768 70.905 83.1924V84.4653H70.1317V83.1924C70.1317 82.2277 70.609 81.6799 71.5636 81.547L71.6683 82.3123Z" fill="white"/>
<path d="M90.9504 101.832H93.7862C94.4951 101.832 95.1355 102.043 95.7055 102.466L95.2443 103.087C94.8113 102.767 94.3259 102.605 93.7862 102.605H90.9504V101.832ZM96.3379 103.087C96.785 103.667 97.0086 104.321 97.0086 105.054V105.8C97.0086 106.428 97.1778 107.006 97.5181 107.532L96.8696 107.951C96.4467 107.298 96.2352 106.581 96.2352 105.8V105.054C96.2352 104.499 96.066 103.999 95.7257 103.558L96.3379 103.087ZM97.9531 108.067C98.5755 108.684 99.3267 108.994 100.203 108.994H100.269C100.819 108.994 101.335 108.863 101.816 108.603L102.183 109.282C101.588 109.604 100.95 109.765 100.269 109.765H100.203C99.1132 109.765 98.1827 109.383 97.4094 108.615L97.9531 108.067ZM102.388 108.21C103.147 107.56 103.528 106.734 103.528 105.733V104.565C103.528 104.438 103.534 104.313 103.542 104.188L104.313 104.243C104.305 104.35 104.301 104.456 104.301 104.565V105.733C104.301 106.97 103.83 107.993 102.889 108.799L102.388 108.21ZM103.671 103.355C104.092 101.588 105.149 100.376 106.843 99.7154L107.123 100.436C105.681 100.998 104.781 102.029 104.422 103.534L103.671 103.355ZM107.636 99.4777C107.995 99.4012 108.359 99.3629 108.73 99.3629H112.102C112.184 99.3629 112.265 99.3589 112.347 99.3548L112.402 100.124C112.303 100.132 112.202 100.136 112.102 100.136H108.73C108.414 100.136 108.104 100.169 107.798 100.233L107.636 99.4777ZM113.034 99.232C114.573 98.7889 115.382 97.7678 115.461 96.1687L116.232 96.2049C116.136 98.1726 115.141 99.4294 113.247 99.9752L113.034 99.232ZM115.465 95.4074V92.2514H116.236V95.4074H115.465Z" fill="white"/>
</g>
<defs>
<clipPath id="clip0_3_28">
<rect width="113" height="113" fill="white" transform="translate(19 17)"/>
</clipPath>
</defs>
</svg>
