<svg width="240" height="116" viewBox="0 0 240 116" fill="none" xmlns="http://www.w3.org/2000/svg">
<path d="M133.019 73.74C131.239 73.74 129.523 73.5338 127.871 73.1213C126.245 72.6831 124.955 72.1418 124 71.4973L126.013 67.1667C126.968 67.7596 128.09 68.2493 129.381 68.636C130.697 68.9969 131.987 69.1773 133.252 69.1773C134.645 69.1773 135.626 69.0098 136.194 68.6747C136.787 68.3396 137.084 67.8756 137.084 67.2827C137.084 66.7929 136.852 66.432 136.387 66.2C135.948 65.9422 135.355 65.7489 134.606 65.62C133.858 65.4911 133.032 65.3622 132.129 65.2333C131.252 65.1044 130.361 64.9369 129.458 64.7307C128.555 64.4987 127.729 64.1636 126.981 63.7253C126.232 63.2871 125.626 62.6942 125.161 61.9467C124.723 61.1991 124.503 60.2324 124.503 59.0467C124.503 57.732 124.877 56.572 125.626 55.5667C126.4 54.5613 127.51 53.7751 128.955 53.208C130.4 52.6151 132.129 52.3187 134.142 52.3187C135.561 52.3187 137.006 52.4733 138.477 52.7827C139.948 53.092 141.174 53.5431 142.155 54.136L140.142 58.428C139.135 57.8351 138.116 57.4356 137.084 57.2293C136.077 56.9973 135.097 56.8813 134.142 56.8813C132.8 56.8813 131.819 57.0618 131.2 57.4227C130.581 57.7836 130.271 58.2476 130.271 58.8147C130.271 59.3302 130.49 59.7169 130.929 59.9747C131.394 60.2324 132 60.4387 132.748 60.5933C133.497 60.748 134.31 60.8898 135.187 61.0187C136.09 61.1218 136.994 61.2893 137.897 61.5213C138.8 61.7533 139.613 62.0884 140.335 62.5267C141.084 62.9391 141.69 63.5191 142.155 64.2667C142.619 64.9884 142.852 65.9422 142.852 67.128C142.852 68.4169 142.465 69.564 141.69 70.5693C140.916 71.5489 139.794 72.3222 138.323 72.8893C136.877 73.4564 135.11 73.74 133.019 73.74ZM130.658 49.96L125.548 44.392H129.961L135.303 48.9933H131.355L136.697 44.392H141.11L136 49.96H130.658ZM146.577 73.4307V52.628H152.616V73.4307H146.577ZM149.597 49.728C148.487 49.728 147.584 49.4058 146.887 48.7613C146.19 48.1169 145.842 47.3178 145.842 46.364C145.842 45.4102 146.19 44.6111 146.887 43.9667C147.584 43.3222 148.487 43 149.597 43C150.706 43 151.61 43.3093 152.306 43.928C153.003 44.5209 153.352 45.2942 153.352 46.248C153.352 47.2533 153.003 48.0911 152.306 48.7613C151.635 49.4058 150.732 49.728 149.597 49.728ZM170.53 73.74C168.698 73.74 167.124 73.3533 165.808 72.58C164.491 71.8067 163.485 70.6338 162.788 69.0613C162.091 67.4631 161.743 65.4524 161.743 63.0293C161.743 60.5804 162.104 58.5698 162.827 56.9973C163.575 55.4249 164.608 54.252 165.924 53.4787C167.24 52.7053 168.775 52.3187 170.53 52.3187C172.491 52.3187 174.246 52.7569 175.795 53.6333C177.369 54.5098 178.608 55.7471 179.511 57.3453C180.44 58.9436 180.904 60.8382 180.904 63.0293C180.904 65.1947 180.44 67.0764 179.511 68.6747C178.608 70.2729 177.369 71.5231 175.795 72.4253C174.246 73.3018 172.491 73.74 170.53 73.74ZM158.22 73.4307V44.74H164.259V56.8427L163.872 62.9907L163.988 69.1773V73.4307H158.22ZM169.485 68.7907C170.491 68.7907 171.382 68.5587 172.156 68.0947C172.956 67.6307 173.588 66.9733 174.053 66.1227C174.543 65.2462 174.788 64.2151 174.788 63.0293C174.788 61.8178 174.543 60.7867 174.053 59.936C173.588 59.0853 172.956 58.428 172.156 57.964C171.382 57.5 170.491 57.268 169.485 57.268C168.478 57.268 167.575 57.5 166.775 57.964C165.975 58.428 165.343 59.0853 164.878 59.936C164.414 60.7867 164.182 61.8178 164.182 63.0293C164.182 64.2151 164.414 65.2462 164.878 66.1227C165.343 66.9733 165.975 67.6307 166.775 68.0947C167.575 68.5587 168.478 68.7907 169.485 68.7907ZM197.381 73.4307V69.3707L196.994 68.4813V61.212C196.994 59.9231 196.594 58.9178 195.794 58.196C195.019 57.4742 193.819 57.1133 192.194 57.1133C191.084 57.1133 189.987 57.2938 188.903 57.6547C187.845 57.9898 186.942 58.4538 186.194 59.0467L184.026 54.832C185.161 54.0329 186.529 53.4142 188.129 52.976C189.729 52.5378 191.355 52.3187 193.006 52.3187C196.181 52.3187 198.645 53.0662 200.4 54.5613C202.155 56.0564 203.032 58.3893 203.032 61.56V73.4307H197.381ZM191.032 73.74C189.406 73.74 188.013 73.4693 186.852 72.928C185.69 72.3609 184.8 71.6004 184.181 70.6467C183.561 69.6929 183.252 68.6231 183.252 67.4373C183.252 66.2 183.548 65.1173 184.142 64.1893C184.761 63.2613 185.729 62.5396 187.045 62.024C188.361 61.4827 190.077 61.212 192.194 61.212H197.729V64.7307H192.852C191.432 64.7307 190.452 64.9627 189.91 65.4267C189.394 65.8907 189.135 66.4707 189.135 67.1667C189.135 67.94 189.432 68.5587 190.026 69.0227C190.645 69.4609 191.484 69.68 192.542 69.68C193.548 69.68 194.452 69.448 195.252 68.984C196.052 68.4942 196.632 67.7853 196.994 66.8573L197.923 69.6413C197.484 70.9818 196.684 72 195.523 72.696C194.361 73.392 192.865 73.74 191.032 73.74ZM208.924 73.4307V46.364H214.111L225.646 65.4653H222.898L234.24 46.364H239.388L239.466 73.4307H233.582L233.543 55.3733H234.627L225.569 70.5693H222.743L213.491 55.3733H214.808V73.4307H208.924Z" fill="white"/>
<circle cx="58" cy="58" r="58" fill="#C10006"/>
<path d="M83.2779 79.6354H98.3753C98.3753 79.6354 100.464 72.6038 101.717 68.0538C102.135 66.3993 102.553 64.7448 102.553 63.0903C102.553 61.4358 102.135 59.7813 101.717 58.1267L100.782 54.8177H73.3094H44.0659H19V79.6354L33.2468 79.6431C33.2468 75.0743 36.9876 71.3705 41.6021 71.3705C46.2166 71.3705 49.9574 75.0743 49.9574 79.6431L59.122 79.6354H66.5673C66.5673 75.0666 70.3081 71.3629 74.9226 71.3629C79.5371 71.3629 83.2779 75.0666 83.2779 79.6354Z" fill="white"/>
<path d="M44.0659 30V54.8177M19 79.6354V54.8177H44.0659M44.0659 54.8177H73.3094M73.3094 30V54.8177M73.3094 54.8177H100.782M19 54.8177H100.782M100.882 54.8177H100.782M83.2779 79.6354H98.3753C98.3753 79.6354 100.464 72.6038 101.717 68.0538C102.135 66.3993 102.553 64.7448 102.553 63.0903C102.553 61.4358 102.135 59.7813 101.717 58.1267L100.782 54.8177M83.2779 79.6354C83.2779 84.2043 79.5371 87.908 74.9226 87.908C70.3081 87.908 66.5673 84.2043 66.5673 79.6354M83.2779 79.6354C83.2779 75.0666 79.5371 71.3629 74.9226 71.3629C70.3081 71.3629 66.5673 75.0666 66.5673 79.6354M33.2468 79.6431L19 79.6354V38.2726C19 36.0786 19.8803 33.9744 21.4472 32.423C23.0141 30.8716 25.1393 30 27.3553 30H85.8424C90.4378 30 94.6154 33.309 95.8687 37.4453L100.782 54.8177M33.2468 79.6431C33.2468 84.2119 36.9876 87.9156 41.6021 87.9156C46.2166 87.9156 49.9574 84.2119 49.9574 79.6431M33.2468 79.6431C33.2468 75.0743 36.9876 71.3705 41.6021 71.3705C46.2166 71.3705 49.9574 75.0743 49.9574 79.6431M49.9574 79.6431L59.122 79.6354H66.5673" stroke="white" stroke-width="5" stroke-linecap="round" stroke-linejoin="round"/>
<path d="M74.9226 70.3371C73.8637 70.3371 72.871 70.5356 71.8783 70.8665L69.3634 65.903L73.6652 59.4835C74.1285 58.8217 73.8637 57.2995 72.4739 57.2995H66.9809C66.1868 57.2995 65.5912 57.8951 65.5912 58.6893C65.5912 59.4835 66.1868 60.0791 66.9809 60.0791H69.8929L66.9809 64.447H50.9652C50.3034 64.447 49.8402 65.0426 49.8402 65.0426L45.6046 71.2636C44.4134 70.668 43.0236 70.3371 41.5676 70.3371C36.4055 70.3371 32.2361 74.5065 32.2361 79.6685C32.2361 84.8306 36.4055 89 41.6338 89C46.2664 89 50.1711 85.5586 50.8329 81.0583H58.4437C59.2378 81.0583 59.5687 80.3965 59.5687 80.3965L67.5104 68.484L69.4296 72.1239C67.1133 73.8446 65.5912 76.558 65.5912 79.6685C65.5912 84.8306 69.7605 89 74.9226 89C80.0847 89 84.2541 84.8306 84.2541 79.6685C84.2541 74.5065 80.0185 70.3371 74.9226 70.3371ZM58.576 76.9551L53.2816 67.1604H65.0617L58.576 76.9551ZM50.8329 68.484L56.0612 78.2787H50.7667C50.4358 76.161 49.3769 74.2417 47.8548 72.8519L50.8329 68.484ZM46.3326 75.1683C47.1268 76.0286 47.7224 77.0875 47.9871 78.2787H44.2148L46.3326 75.1683ZM41.6338 86.1542C38.06 86.1542 35.0819 83.2423 35.0819 79.6024C35.0819 75.9624 37.9939 73.1167 41.6338 73.1167C42.4941 73.1167 43.2883 73.3152 44.0825 73.5799L40.5087 78.8744C39.9131 79.6024 40.4425 80.9921 41.6338 80.9921H47.9871C47.3253 83.9703 44.6781 86.1542 41.6338 86.1542ZM74.9226 86.1542C71.3489 86.1542 68.3707 83.2423 68.3707 79.6024C68.3707 77.6169 69.2973 75.7639 70.7532 74.5726L73.7314 80.2642C74.0623 80.7936 74.8564 81.1907 75.6506 80.8598C76.3124 80.5951 76.5771 79.6685 76.2462 79.0067L73.2681 73.3814C73.7975 73.249 74.3932 73.1167 74.9888 73.1167C78.5625 73.1167 81.5407 76.0286 81.5407 79.6685C81.5407 83.3085 78.5625 86.1542 74.9226 86.1542ZM48.4504 62.1969H53.5463C54.3405 62.1969 54.9361 61.6012 54.9361 60.8071C54.9361 60.0129 54.3405 59.4173 53.5463 59.4173H48.4504C47.6562 59.4173 47.0606 60.0129 47.0606 60.8071C46.9944 61.5351 47.6562 62.1969 48.4504 62.1969Z" fill="#C10006"/>
</svg>
