<svg width="263" height="116" viewBox="0 0 263 116" fill="none" xmlns="http://www.w3.org/2000/svg">
<path d="M156.019 73.74C154.239 73.74 152.523 73.5338 150.871 73.1213C149.245 72.6831 147.955 72.1418 147 71.4973L149.013 67.1667C149.968 67.7596 151.09 68.2493 152.381 68.636C153.697 68.9969 154.987 69.1773 156.252 69.1773C157.645 69.1773 158.626 69.0098 159.194 68.6747C159.787 68.3396 160.084 67.8756 160.084 67.2827C160.084 66.7929 159.852 66.432 159.387 66.2C158.948 65.9422 158.355 65.7489 157.606 65.62C156.858 65.4911 156.032 65.3622 155.129 65.2333C154.252 65.1044 153.361 64.9369 152.458 64.7307C151.555 64.4987 150.729 64.1636 149.981 63.7253C149.232 63.2871 148.626 62.6942 148.161 61.9467C147.723 61.1991 147.503 60.2324 147.503 59.0467C147.503 57.732 147.877 56.572 148.626 55.5667C149.4 54.5613 150.51 53.7751 151.955 53.208C153.4 52.6151 155.129 52.3187 157.142 52.3187C158.561 52.3187 160.006 52.4733 161.477 52.7827C162.948 53.092 164.174 53.5431 165.155 54.136L163.142 58.428C162.135 57.8351 161.116 57.4356 160.084 57.2293C159.077 56.9973 158.097 56.8813 157.142 56.8813C155.8 56.8813 154.819 57.0618 154.2 57.4227C153.581 57.7836 153.271 58.2476 153.271 58.8147C153.271 59.3302 153.49 59.7169 153.929 59.9747C154.394 60.2324 155 60.4387 155.748 60.5933C156.497 60.748 157.31 60.8898 158.187 61.0187C159.09 61.1218 159.994 61.2893 160.897 61.5213C161.8 61.7533 162.613 62.0884 163.335 62.5267C164.084 62.9391 164.69 63.5191 165.155 64.2667C165.619 64.9884 165.852 65.9422 165.852 67.128C165.852 68.4169 165.465 69.564 164.69 70.5693C163.916 71.5489 162.794 72.3222 161.323 72.8893C159.877 73.4564 158.11 73.74 156.019 73.74ZM153.658 49.96L148.548 44.392H152.961L158.303 48.9933H154.355L159.697 44.392H164.11L159 49.96H153.658ZM169.577 73.4307V52.628H175.616V73.4307H169.577ZM172.597 49.728C171.487 49.728 170.584 49.4058 169.887 48.7613C169.19 48.1169 168.842 47.3178 168.842 46.364C168.842 45.4102 169.19 44.6111 169.887 43.9667C170.584 43.3222 171.487 43 172.597 43C173.706 43 174.61 43.3093 175.306 43.928C176.003 44.5209 176.352 45.2942 176.352 46.248C176.352 47.2533 176.003 48.0911 175.306 48.7613C174.635 49.4058 173.732 49.728 172.597 49.728ZM193.53 73.74C191.698 73.74 190.124 73.3533 188.808 72.58C187.491 71.8067 186.485 70.6338 185.788 69.0613C185.091 67.4631 184.743 65.4524 184.743 63.0293C184.743 60.5804 185.104 58.5698 185.827 56.9973C186.575 55.4249 187.608 54.252 188.924 53.4787C190.24 52.7053 191.775 52.3187 193.53 52.3187C195.491 52.3187 197.246 52.7569 198.795 53.6333C200.369 54.5098 201.608 55.7471 202.511 57.3453C203.44 58.9436 203.904 60.8382 203.904 63.0293C203.904 65.1947 203.44 67.0764 202.511 68.6747C201.608 70.2729 200.369 71.5231 198.795 72.4253C197.246 73.3018 195.491 73.74 193.53 73.74ZM181.22 73.4307V44.74H187.259V56.8427L186.872 62.9907L186.988 69.1773V73.4307H181.22ZM192.485 68.7907C193.491 68.7907 194.382 68.5587 195.156 68.0947C195.956 67.6307 196.588 66.9733 197.053 66.1227C197.543 65.2462 197.788 64.2151 197.788 63.0293C197.788 61.8178 197.543 60.7867 197.053 59.936C196.588 59.0853 195.956 58.428 195.156 57.964C194.382 57.5 193.491 57.268 192.485 57.268C191.478 57.268 190.575 57.5 189.775 57.964C188.975 58.428 188.343 59.0853 187.878 59.936C187.414 60.7867 187.182 61.8178 187.182 63.0293C187.182 64.2151 187.414 65.2462 187.878 66.1227C188.343 66.9733 188.975 67.6307 189.775 68.0947C190.575 68.5587 191.478 68.7907 192.485 68.7907ZM220.381 73.4307V69.3707L219.994 68.4813V61.212C219.994 59.9231 219.594 58.9178 218.794 58.196C218.019 57.4742 216.819 57.1133 215.194 57.1133C214.084 57.1133 212.987 57.2938 211.903 57.6547C210.845 57.9898 209.942 58.4538 209.194 59.0467L207.026 54.832C208.161 54.0329 209.529 53.4142 211.129 52.976C212.729 52.5378 214.355 52.3187 216.006 52.3187C219.181 52.3187 221.645 53.0662 223.4 54.5613C225.155 56.0564 226.032 58.3893 226.032 61.56V73.4307H220.381ZM214.032 73.74C212.406 73.74 211.013 73.4693 209.852 72.928C208.69 72.3609 207.8 71.6004 207.181 70.6467C206.561 69.6929 206.252 68.6231 206.252 67.4373C206.252 66.2 206.548 65.1173 207.142 64.1893C207.761 63.2613 208.729 62.5396 210.045 62.024C211.361 61.4827 213.077 61.212 215.194 61.212H220.729V64.7307H215.852C214.432 64.7307 213.452 64.9627 212.91 65.4267C212.394 65.8907 212.135 66.4707 212.135 67.1667C212.135 67.94 212.432 68.5587 213.026 69.0227C213.645 69.4609 214.484 69.68 215.542 69.68C216.548 69.68 217.452 69.448 218.252 68.984C219.052 68.4942 219.632 67.7853 219.994 66.8573L220.923 69.6413C220.484 70.9818 219.684 72 218.523 72.696C217.361 73.392 215.865 73.74 214.032 73.74ZM231.924 73.4307V46.364H237.111L248.646 65.4653H245.898L257.24 46.364H262.388L262.466 73.4307H256.582L256.543 55.3733H257.627L248.569 70.5693H245.743L236.491 55.3733H237.808V73.4307H231.924Z" fill="white"/>
<circle cx="58" cy="58" r="58" fill="#C10006"/>
<path d="M83.2779 79.6354H98.3753C98.3753 79.6354 100.464 72.6038 101.717 68.0538C102.135 66.3993 102.553 64.7448 102.553 63.0903C102.553 61.4358 102.135 59.7813 101.717 58.1267L100.782 54.8177H73.3094H44.0659H19V79.6354L33.2468 79.6431C33.2468 75.0743 36.9876 71.3705 41.6021 71.3705C46.2166 71.3705 49.9574 75.0743 49.9574 79.6431L59.122 79.6354H66.5673C66.5673 75.0666 70.3081 71.3629 74.9226 71.3629C79.5371 71.3629 83.2779 75.0666 83.2779 79.6354Z" fill="white"/>
<path d="M44.0659 30V54.8177M19 79.6354V54.8177H44.0659M44.0659 54.8177H73.3094M73.3094 30V54.8177M73.3094 54.8177H100.782M19 54.8177H100.782M100.882 54.8177H100.782M83.2779 79.6354H98.3753C98.3753 79.6354 100.464 72.6038 101.717 68.0538C102.135 66.3993 102.553 64.7448 102.553 63.0903C102.553 61.4358 102.135 59.7813 101.717 58.1267L100.782 54.8177M83.2779 79.6354C83.2779 84.2043 79.5371 87.908 74.9226 87.908C70.3081 87.908 66.5673 84.2043 66.5673 79.6354M83.2779 79.6354C83.2779 75.0666 79.5371 71.3629 74.9226 71.3629C70.3081 71.3629 66.5673 75.0666 66.5673 79.6354M33.2468 79.6431L19 79.6354V38.2726C19 36.0786 19.8803 33.9744 21.4472 32.423C23.0141 30.8716 25.1393 30 27.3553 30H85.8424C90.4378 30 94.6154 33.309 95.8687 37.4453L100.782 54.8177M33.2468 79.6431C33.2468 84.2119 36.9876 87.9156 41.6021 87.9156C46.2166 87.9156 49.9574 84.2119 49.9574 79.6431M33.2468 79.6431C33.2468 75.0743 36.9876 71.3705 41.6021 71.3705C46.2166 71.3705 49.9574 75.0743 49.9574 79.6431M49.9574 79.6431L59.122 79.6354H66.5673" stroke="white" stroke-width="5" stroke-linecap="round" stroke-linejoin="round"/>
<path d="M74.9226 70.3371C73.8637 70.3371 72.871 70.5356 71.8783 70.8665L69.3634 65.903L73.6652 59.4835C74.1285 58.8217 73.8637 57.2995 72.4739 57.2995H66.9809C66.1868 57.2995 65.5912 57.8951 65.5912 58.6893C65.5912 59.4835 66.1868 60.0791 66.9809 60.0791H69.8929L66.9809 64.447H50.9652C50.3034 64.447 49.8402 65.0426 49.8402 65.0426L45.6046 71.2636C44.4134 70.668 43.0236 70.3371 41.5676 70.3371C36.4055 70.3371 32.2361 74.5065 32.2361 79.6685C32.2361 84.8306 36.4055 89 41.6338 89C46.2664 89 50.1711 85.5586 50.8329 81.0583H58.4437C59.2378 81.0583 59.5687 80.3965 59.5687 80.3965L67.5104 68.484L69.4296 72.1239C67.1133 73.8446 65.5912 76.558 65.5912 79.6685C65.5912 84.8306 69.7605 89 74.9226 89C80.0847 89 84.2541 84.8306 84.2541 79.6685C84.2541 74.5065 80.0185 70.3371 74.9226 70.3371ZM58.576 76.9551L53.2816 67.1604H65.0617L58.576 76.9551ZM50.8329 68.484L56.0612 78.2787H50.7667C50.4358 76.161 49.3769 74.2417 47.8548 72.8519L50.8329 68.484ZM46.3326 75.1683C47.1268 76.0286 47.7224 77.0875 47.9871 78.2787H44.2148L46.3326 75.1683ZM41.6338 86.1542C38.06 86.1542 35.0819 83.2423 35.0819 79.6024C35.0819 75.9624 37.9939 73.1167 41.6338 73.1167C42.4941 73.1167 43.2883 73.3152 44.0825 73.5799L40.5087 78.8744C39.9131 79.6024 40.4425 80.9921 41.6338 80.9921H47.9871C47.3253 83.9703 44.6781 86.1542 41.6338 86.1542ZM74.9226 86.1542C71.3489 86.1542 68.3707 83.2423 68.3707 79.6024C68.3707 77.6169 69.2973 75.7639 70.7532 74.5726L73.7314 80.2642C74.0623 80.7936 74.8564 81.1907 75.6506 80.8598C76.3124 80.5951 76.5771 79.6685 76.2462 79.0067L73.2681 73.3814C73.7975 73.249 74.3932 73.1167 74.9888 73.1167C78.5625 73.1167 81.5407 76.0286 81.5407 79.6685C81.5407 83.3085 78.5625 86.1542 74.9226 86.1542ZM48.4504 62.1969H53.5463C54.3405 62.1969 54.9361 61.6012 54.9361 60.8071C54.9361 60.0129 54.3405 59.4173 53.5463 59.4173H48.4504C47.6562 59.4173 47.0606 60.0129 47.0606 60.8071C46.9944 61.5351 47.6562 62.1969 48.4504 62.1969Z" fill="#C10006"/>
</svg>
