<svg width="113" height="113" viewBox="0 0 113 113" fill="none" xmlns="http://www.w3.org/2000/svg">
<mask id="mask0_4_93" style="mask-type:luminance" maskUnits="userSpaceOnUse" x="0" y="0" width="113" height="113">
<path d="M0 0H113V113H0V0Z" fill="white"/>
</mask>
<g mask="url(#mask0_4_93)">
<mask id="mask1_4_93" style="mask-type:luminance" maskUnits="userSpaceOnUse" x="0" y="0" width="113" height="113">
<path d="M56.499 0C25.296 0 0 25.296 0 56.499C0 87.7041 25.296 113 56.499 113C87.7041 113 113 87.7041 113 56.499C113 25.296 87.7041 0 56.499 0Z" fill="white"/>
</mask>
<g mask="url(#mask1_4_93)">
<mask id="mask2_4_93" style="mask-type:luminance" maskUnits="userSpaceOnUse" x="0" y="0" width="114" height="114">
<path d="M113.429 0H0V113.429H113.429V0Z" fill="white"/>
</mask>
<g mask="url(#mask2_4_93)">
<mask id="mask3_4_93" style="mask-type:luminance" maskUnits="userSpaceOnUse" x="0" y="0" width="113" height="113">
<path d="M0 0H113V113H0V0Z" fill="white"/>
</mask>
<g mask="url(#mask3_4_93)">
<mask id="mask4_4_93" style="mask-type:luminance" maskUnits="userSpaceOnUse" x="0" y="0" width="113" height="113">
<path d="M56.499 0C25.296 0 0 25.296 0 56.499C0 87.7041 25.296 113 56.499 113C87.7041 113 113 87.7041 113 56.499C113 25.296 87.7041 0 56.499 0Z" fill="white"/>
</mask>
<g mask="url(#mask4_4_93)">
<path d="M0 0H113V113H0V0Z" fill="#D9113E"/>
</g>
</g>
</g>
</g>
</g>
<mask id="mask5_4_93" style="mask-type:luminance" maskUnits="userSpaceOnUse" x="17" y="65" width="54" height="33">
<path d="M17.244 65.0908H70.5467V97.4458H17.244V65.0908Z" fill="white"/>
</mask>
<g mask="url(#mask5_4_93)">
<path d="M35.8876 65.1492L34.2805 67.28L35.1988 68.8751L32.8062 76.6975C31.2413 75.616 29.3904 74.9836 27.4087 74.9836C21.7916 74.9836 17.2379 80.0005 17.2379 86.1915C17.2379 92.3846 21.7916 97.4015 27.4087 97.4015C33.0257 97.4015 37.5794 92.3846 37.5794 86.1915C37.5794 82.7093 36.1374 79.5956 33.8756 77.5393L34.4557 75.6059L44.6164 88.1371C44.3968 88.4311 44.2558 88.7916 44.2558 89.1863C44.2558 90.145 45.0272 90.9265 45.9818 90.9446L46.3967 93.4359L45.6536 93.4258V94.7249L48.3866 94.737L48.3966 93.448L47.5991 93.4359L46.7693 90.7714C47.16 90.5821 47.4783 90.2578 47.6434 89.853L50.6362 89.2307C51.8809 93.8709 55.778 97.2605 60.3921 97.2605C66.0092 97.2605 70.5648 92.2436 70.5648 86.0505C70.5648 79.8575 66.0092 74.8406 60.3921 74.8406C58.3458 74.8406 56.4386 75.5092 54.8435 76.6552L54.8213 76.633L51.3572 72.9615L51.8164 71.4752C52.3844 71.4611 52.8617 71.4429 52.908 71.4429C53.0309 71.4429 53.8163 71.2758 54.1225 71.0502C54.6421 70.6615 55.1939 69.9042 55.2906 69.7713C55.3873 69.6384 55.4557 69.3846 55.3349 69.2034C55.2141 69.0221 54.9885 68.863 54.7226 68.8751C54.4568 68.8872 54.195 68.9214 52.1669 69.1168C50.1388 69.3101 48.9827 69.433 48.5719 69.433C48.159 69.433 47.1097 69.437 46.9989 69.4652C46.7673 69.5256 46.5176 69.7612 46.5176 69.7612C46.5176 69.7612 46.6344 70.1318 46.6706 70.2527C46.7069 70.3735 46.9002 70.6696 47.1178 70.7541C47.3373 70.8387 48.0603 71.2174 49.0532 71.3986C49.3634 71.457 49.8548 71.4772 50.3744 71.4872L50.1005 72.4258L35.3519 72.601L36.51 68.7341L36.1716 68.0131L36.6087 67.3787L40.5299 67.28V65.1492H35.8876ZM49.4882 74.4478L45.8952 86.4876L45.7845 84.7173H46.288L46.298 83.5814L43.8953 83.5693V84.7072H44.6043L44.9769 86.5963L35.0136 74.5022L49.4882 74.4478ZM50.898 74.5022L53.3672 77.9542C51.4338 79.9944 50.2213 82.8664 50.2213 86.0505C50.2213 86.4755 50.2455 86.8944 50.2858 87.3073L47.2487 87.9296C47.2185 87.8994 47.1822 87.8793 47.15 87.8531L50.898 74.5022ZM60.3921 77.1124C64.8692 77.1124 68.4985 81.1142 68.4985 86.0505C68.4985 90.9849 64.8692 94.9867 60.3921 94.9867C56.789 94.9867 53.7338 92.3906 52.6784 88.8037L61.7475 86.9025L56.066 78.4899C57.3187 77.6179 58.803 77.1124 60.3921 77.1124ZM27.4087 77.2554C29.1689 77.2554 30.7982 77.8757 32.1275 78.927L31.2312 81.8554L27.4731 85.831C27.4308 85.8089 27.3885 85.7847 27.3422 85.7666C27.2052 85.7102 27.0542 85.6779 26.8951 85.6779C26.2144 85.6779 25.6605 86.2318 25.6605 86.9125C25.6605 87.5953 26.2144 88.1471 26.8951 88.1471C27.32 88.1471 27.6886 87.9296 27.9101 87.6013L27.9222 87.5792L32.2483 82.9691L33.1667 79.8998C34.6208 81.515 35.515 83.7364 35.515 86.1935C35.515 91.1279 31.8858 95.1297 27.4087 95.1297C22.9315 95.1297 19.3023 91.1279 19.3023 86.1935C19.3023 81.2572 22.9315 77.2554 27.4087 77.2554ZM54.6461 79.7467L58.7869 85.537L52.3179 86.8803C52.2958 86.6084 52.2857 86.3285 52.2857 86.0505C52.2857 83.5894 53.1839 81.3639 54.6461 79.7467Z" fill="white"/>
</g>
<path d="M87.0233 15.8382H51.5163C49.883 15.8382 48.5598 17.1634 48.5598 18.7967V54.2997C48.5598 55.9331 49.883 57.2583 51.5163 57.2583H52.5314C52.3803 57.6812 52.2978 58.1344 52.2978 58.6097C52.2978 60.8271 54.0963 62.6256 56.3157 62.6256C58.5331 62.6256 60.3316 60.8271 60.3316 58.6097C60.3316 58.1344 60.2491 57.6812 60.098 57.2583H78.4396C78.2885 57.6812 78.206 58.1344 78.206 58.6097C78.206 60.8271 80.0025 62.6256 82.2219 62.6256C84.4413 62.6256 86.2398 60.8271 86.2398 58.6097C86.2398 58.1344 86.1573 57.6812 86.0062 57.2583H87.0213C88.6546 57.2583 89.9778 55.9331 89.9778 54.2997V18.7967C89.9778 17.1634 88.6546 15.8382 87.0213 15.8382H87.0233ZM58.1162 19.7876C58.1162 19.4795 58.3639 19.2277 58.6741 19.2277H79.8655C80.1716 19.2277 80.4234 19.4775 80.4234 19.7876V20.2146C80.4234 20.5207 80.1757 20.7725 79.8655 20.7725H58.6721C58.3639 20.7725 58.1142 20.5228 58.1142 20.2146V19.7876H58.1162ZM53.6089 25.9002C53.6089 24.5709 54.6864 23.4954 56.0136 23.4954H82.522C83.8512 23.4954 84.9287 24.5709 84.9287 25.9002V33.35C84.9287 34.6772 83.8512 35.7547 82.522 35.7547H56.0136C54.6864 35.7547 53.6089 34.6772 53.6089 33.35V25.9002ZM57.0569 53.3249H55.4799C54.4487 53.3249 53.6089 52.4871 53.6089 51.4539V49.8789C53.6089 48.8458 54.4487 48.0059 55.4799 48.0059H57.0569C58.088 48.0059 58.9279 48.8458 58.9279 49.8789V51.4539C58.9279 52.4871 58.088 53.3249 57.0569 53.3249ZM83.0597 53.3249H81.4828C80.4516 53.3249 79.6117 52.4871 79.6117 51.4539V49.8789C79.6117 48.8458 80.4516 48.0059 81.4828 48.0059H83.0597C84.0909 48.0059 84.9307 48.8458 84.9307 49.8789V51.4539C84.9307 52.4871 84.0909 53.3249 83.0597 53.3249Z" fill="white"/>
<path d="M47.3373 32.7095H49.7803C49.9232 32.7095 50.0582 32.7377 50.1891 32.7921C50.32 32.8465 50.4368 32.923 50.5355 33.0237C50.6362 33.1244 50.7127 33.2392 50.7671 33.3701C50.8215 33.501 50.8497 33.638 50.8497 33.779V39.9056C50.8497 40.0466 50.8215 40.1835 50.7671 40.3144C50.7127 40.4453 50.6362 40.5601 50.5355 40.6608C50.4368 40.7615 50.32 40.8381 50.1891 40.8924C50.0582 40.9468 49.9232 40.973 49.7803 40.973H47.3373C47.1963 40.973 47.0593 40.9468 46.9284 40.8924C46.7975 40.8381 46.6827 40.7615 46.582 40.6608C46.4813 40.5601 46.4048 40.4453 46.3504 40.3144C46.296 40.1835 46.2698 40.0466 46.2698 39.9056V33.779C46.2698 33.638 46.296 33.501 46.3504 33.3701C46.4048 33.2392 46.4813 33.1244 46.582 33.0237C46.6827 32.923 46.7975 32.8465 46.9284 32.7921C47.0593 32.7377 47.1963 32.7095 47.3373 32.7095Z" fill="white"/>
<path d="M88.7594 32.7095H91.2024C91.3434 32.7095 91.4803 32.7377 91.6112 32.7921C91.7421 32.8465 91.8569 32.923 91.9576 33.0237C92.0583 33.1244 92.1349 33.2392 92.1892 33.3701C92.2436 33.501 92.2698 33.638 92.2698 33.779V39.9056C92.2698 40.0466 92.2436 40.1835 92.1892 40.3144C92.1349 40.4453 92.0583 40.5601 91.9576 40.6608C91.8569 40.7615 91.7421 40.8381 91.6112 40.8924C91.4803 40.9468 91.3434 40.973 91.2024 40.973H88.7594C88.6164 40.973 88.4814 40.9468 88.3505 40.8924C88.2196 40.8381 88.1028 40.7615 88.0041 40.6608C87.9034 40.5601 87.8269 40.4453 87.7725 40.3144C87.7181 40.1835 87.6899 40.0466 87.6899 39.9056V33.779C87.6899 33.638 87.7181 33.501 87.7725 33.3701C87.8269 33.2392 87.9034 33.1244 88.0041 33.0237C88.1028 32.923 88.2196 32.8465 88.3505 32.7921C88.4814 32.7377 88.6164 32.7095 88.7594 32.7095Z" fill="white"/>
<mask id="mask6_4_93" style="mask-type:luminance" maskUnits="userSpaceOnUse" x="45" y="14" width="49" height="50">
<path d="M45.6093 14.5653H93.1177V63.2338H45.6093V14.5653Z" fill="white"/>
</mask>
<g mask="url(#mask6_4_93)">
<path d="M69.2698 76.0973C48.9424 76.0973 32.4054 59.5583 32.4054 39.2329C32.4054 18.9075 48.9424 2.37048 69.2698 2.37048C89.5972 2.37048 106.134 18.9055 106.134 39.2329C106.134 59.5623 89.5952 76.0973 69.2698 76.0973ZM69.2698 4.37241C50.0481 4.37241 34.4093 20.0112 34.4093 39.2329C34.4093 58.4546 50.0481 74.0934 69.2698 74.0934C88.4915 74.0934 104.13 58.4546 104.13 39.2329C104.13 20.0112 88.4915 4.37241 69.2698 4.37241Z" fill="white"/>
</g>
<mask id="mask7_4_93" style="mask-type:luminance" maskUnits="userSpaceOnUse" x="19" y="23" width="9" height="11">
<path d="M19.3607 23.0564H27.0864V33.4869H19.3607V23.0564Z" fill="white"/>
</mask>
<g mask="url(#mask7_4_93)">
<path d="M23.1329 23.0564C21.0585 23.0564 19.3768 24.8005 19.3768 26.9535C19.3768 29.1045 20.7423 29.2595 23.1329 33.3963C25.5195 29.2595 26.891 29.1045 26.891 26.9535C26.891 24.8005 25.2093 23.0564 23.1329 23.0564ZM23.1329 28.4257C22.9416 28.4217 22.7583 28.3814 22.5831 28.3049C22.4079 28.2284 22.2528 28.1196 22.1199 27.9826C21.9869 27.8437 21.8842 27.6866 21.8137 27.5073C21.7452 27.3301 21.711 27.1448 21.715 26.9535C21.711 26.7601 21.7452 26.5769 21.8157 26.3976C21.8842 26.2204 21.9869 26.0613 22.1199 25.9243C22.2528 25.7854 22.4079 25.6786 22.5831 25.6021C22.7583 25.5256 22.9416 25.4853 23.1329 25.4812C23.3242 25.4853 23.5095 25.5256 23.6847 25.6021C23.86 25.6786 24.015 25.7854 24.148 25.9243C24.2809 26.0613 24.3816 26.2204 24.4521 26.3976C24.5226 26.5769 24.5568 26.7601 24.5528 26.9535C24.5568 27.1448 24.5226 27.3301 24.4521 27.5073C24.3816 27.6866 24.2809 27.8437 24.148 27.9826C24.015 28.1196 23.86 28.2284 23.6847 28.3049C23.5095 28.3814 23.3262 28.4217 23.1329 28.4257Z" fill="white"/>
</g>
<mask id="mask8_4_93" style="mask-type:luminance" maskUnits="userSpaceOnUse" x="93" y="63" width="8" height="12">
<path d="M93.0714 63.7071H100.795V74.1357H93.0714V63.7071Z" fill="white"/>
</mask>
<g mask="url(#mask8_4_93)">
<path d="M96.8437 63.7071C94.7692 63.7071 93.0855 65.4513 93.0855 67.6022C93.0855 69.7552 94.451 69.9103 96.8437 74.045C99.2282 69.9103 100.6 69.7552 100.6 67.6022C100.6 65.4513 98.9181 63.7071 96.8437 63.7071ZM96.8437 69.0745C96.6523 69.0724 96.467 69.0322 96.2918 68.9556C96.1166 68.8791 95.9615 68.7703 95.8286 68.6334C95.6957 68.4944 95.595 68.3373 95.5245 68.1581C95.454 67.9808 95.4197 67.7956 95.4238 67.6022C95.4197 67.4109 95.454 67.2276 95.5245 67.0484C95.595 66.8711 95.6957 66.712 95.8286 66.5751C95.9615 66.4361 96.1166 66.3294 96.2918 66.2528C96.469 66.1763 96.6523 66.136 96.8437 66.132C97.035 66.136 97.2183 66.1763 97.3935 66.2528C97.5707 66.3294 97.7238 66.4361 97.8567 66.5751C97.9896 66.712 98.0923 66.8711 98.1628 67.0484C98.2333 67.2276 98.2655 67.4109 98.2635 67.6022C98.2655 67.7956 98.2333 67.9808 98.1628 68.1581C98.0923 68.3373 97.9896 68.4944 97.8567 68.6334C97.7238 68.7703 97.5707 68.8791 97.3935 68.9556C97.2183 69.0322 97.035 69.0724 96.8437 69.0745Z" fill="white"/>
</g>
<path d="M23.5277 35.0639V39.7001H22.7543V35.0639H23.5277ZM23.5277 40.4715V45.1077H22.7543V40.4715H23.5277ZM23.5277 45.8791V46.6042C23.5277 47.4641 23.8318 48.1972 24.438 48.8055C24.6897 49.0572 24.9757 49.2606 25.298 49.4137L24.9636 50.1105C24.5629 49.9192 24.2064 49.6654 23.8922 49.3513C23.1349 48.594 22.7543 47.6776 22.7543 46.6042V45.8791H23.5277ZM25.9465 49.6393C26.1741 49.6916 26.4057 49.7178 26.6393 49.7178C27.4993 49.7178 28.2324 49.4137 28.8406 48.8055C29.0803 48.5658 29.2756 48.2939 29.4267 47.9898L30.1195 48.3342C29.9302 48.7128 29.6865 49.0532 29.3864 49.3513C28.6291 50.1105 27.7128 50.4892 26.6393 50.4892C26.3473 50.4892 26.0593 50.457 25.7733 50.3925L25.9465 49.6393ZM29.6623 47.3453C29.7227 47.1016 29.753 46.8559 29.753 46.6042V42.8017H30.5243V46.6042C30.5243 46.9183 30.4881 47.2265 30.4135 47.5286L29.6623 47.3453ZM29.753 42.0303V37.3941H30.5243V42.0303H29.753ZM29.753 36.6227V31.9865H30.5243V36.6227H29.753ZM29.761 31.1849C29.8335 30.0853 30.2605 29.1447 31.0399 28.3653C31.5072 27.9001 32.0509 27.5557 32.6713 27.3341L32.9311 28.0612C32.4195 28.2444 31.9704 28.5284 31.5857 28.9131C30.9432 29.5556 30.5928 30.3289 30.5324 31.2353L29.761 31.1849ZM33.495 27.1267C33.7105 27.0945 33.928 27.0783 34.1475 27.0783C35.36 27.0783 36.3972 27.5073 37.2551 28.3653C37.4948 28.607 37.7043 28.8708 37.8835 29.1608L37.2269 29.5677C37.0799 29.33 36.9067 29.1105 36.7093 28.9131C36.0004 28.2042 35.1465 27.8517 34.1475 27.8517C33.9663 27.8517 33.787 27.8658 33.6098 27.892L33.495 27.1267ZM38.2581 29.9201C38.4474 30.4216 38.5421 30.9392 38.5421 31.4729V33.1526C38.5421 33.6158 38.6347 34.0589 38.818 34.4838L38.1091 34.792C37.8835 34.2684 37.7687 33.7226 37.7687 33.1526V31.4729C37.7687 31.0318 37.6922 30.6069 37.5351 30.194L38.2581 29.9201ZM39.1584 35.0881C39.2671 35.2411 39.388 35.3821 39.5209 35.515C40.1734 36.1676 40.9609 36.4938 41.8833 36.4938H42.991V37.2672H41.8833C40.7474 37.2672 39.7767 36.8644 38.9731 36.0608C38.81 35.8977 38.6629 35.7225 38.528 35.5352L39.1584 35.0881ZM43.7624 36.4938H45.6092V37.2672H43.7624V36.4938Z" fill="white"/>
<path d="M69.3403 58.8876H69.147C69.1993 58.8876 69.2456 58.8695 69.2839 58.8312C69.3202 58.795 69.3403 58.7486 69.3403 58.6963V61.7092C69.3403 62.1422 69.2658 62.5612 69.1147 62.964L68.3917 62.6941C68.5085 62.3779 68.5669 62.0496 68.5669 61.7092V58.6963C68.5669 58.5352 68.6233 58.3982 68.7381 58.2854C68.8509 58.1726 68.9858 58.1162 69.147 58.1162H69.3403V58.8876ZM68.716 63.7333C68.001 64.7806 67.0121 65.3042 65.7453 65.3042H64.2147V64.5309H65.7453C66.7402 64.5309 67.5176 64.12 68.0775 63.2983L68.716 63.7333ZM63.4413 65.3042H58.807V64.5309H63.4413V65.3042ZM58.0337 65.3042H53.3994V64.5309H58.0337V65.3042ZM52.6683 65.3123C52.1588 65.3828 51.905 65.6768 51.905 66.1924V67.4653H51.1317V66.1924C51.1317 65.2277 51.609 64.6799 52.5636 64.547L52.6683 65.3123Z" fill="white"/>
<path d="M71.9504 84.8321H74.7862C75.4951 84.8321 76.1355 85.0435 76.7055 85.4665L76.2443 86.0868C75.8113 85.7666 75.3259 85.6055 74.7862 85.6055H71.9504V84.8321ZM77.3379 86.0868C77.785 86.6668 78.0086 87.3214 78.0086 88.0545V88.7997C78.0086 89.428 78.1778 90.0061 78.5181 90.5317L77.8696 90.9506C77.4467 90.2981 77.2352 89.5811 77.2352 88.7997V88.0545C77.2352 87.4986 77.066 86.9991 76.7257 86.5581L77.3379 86.0868ZM78.9531 91.0674C79.5755 91.6837 80.3267 91.9939 81.2028 91.9939H81.2693C81.8191 91.9939 82.3347 91.863 82.816 91.6032L83.1826 92.2819C82.5884 92.6041 81.95 92.7653 81.2693 92.7653H81.2028C80.1132 92.7653 79.1827 92.3826 78.4094 91.6153L78.9531 91.0674ZM83.388 91.2104C84.1473 90.5599 84.5279 89.7342 84.5279 88.7332V87.5651C84.5279 87.4382 84.534 87.3133 84.542 87.1885L85.3134 87.2428C85.3053 87.3496 85.3013 87.4563 85.3013 87.5651V88.7332C85.3013 89.9698 84.83 90.9929 83.8895 91.7985L83.388 91.2104ZM84.6709 86.3547C85.0918 84.5884 86.1492 83.3759 87.843 82.7154L88.1229 83.4364C86.6809 83.9983 85.7806 85.0294 85.4221 86.5339L84.6709 86.3547ZM88.6365 82.4777C88.995 82.4012 89.3595 82.3629 89.7301 82.3629H93.1016C93.1841 82.3629 93.2647 82.3589 93.3473 82.3548L93.4016 83.1242C93.303 83.1323 93.2023 83.1363 93.1016 83.1363H89.7301C89.4139 83.1363 89.1038 83.1685 88.7976 83.233L88.6365 82.4777ZM94.034 82.232C95.5728 81.7889 96.3824 80.7678 96.4609 79.1687L97.2323 79.2049C97.1356 81.1726 96.1407 82.4294 94.2475 82.9752L94.034 82.232ZM96.465 78.4074V75.2514H97.2363V78.4074H96.465Z" fill="white"/>
</svg>
